<svg width="243" height="404" viewBox="0 0 243 404" fill="none" xmlns="http://www.w3.org/2000/svg">
<path opacity="0.5" d="M50 179V90L0 124L50 179Z" fill="#6850FF"/>
<path opacity="0.3" d="M112 48L0 124L24 48H112Z" fill="#6850FF"/>
<path opacity="0.8" d="M111 48L50 90H179L111 48Z" fill="#6850FF"/>
<path opacity="0.8" d="M133 0L24 48H111L133 0Z" fill="#6850FF"/>
<path opacity="0.5" d="M83 218L184 145L169 218H83Z" fill="#6850FF"/>
<path opacity="0.8" d="M69 264L83 217.5H134.5L69 264Z" fill="#6850FF"/>
<g opacity="0.3">
<path d="M120 313L69 264L134 218L120 313Z" fill="#6850FF"/>
<path d="M242 87L134 0L179 90L242 87Z" fill="#6850FF"/>
</g>
<path opacity="0.3" d="M144 355L100 319L138 399L144 355Z" fill="#6850FF"/>
<path opacity="0.8" d="M47 370L100 319L141 404L47 370Z" fill="#6850FF"/>
<path opacity="0.2" d="M243 87L185 144L178.5 89.5L243 87Z" fill="#6850FF"/>
<path opacity="0.8" d="M243 88L170 218L184.5 144.5L243 88Z" fill="#6850FF"/>
<path d="M50 141V90H107L50 141Z" fill="#6850FF"/>
<path opacity="0.3" d="M185 145L110 90H179L185 145Z" fill="#6850FF"/>
</svg>
