<svg width="9" height="8" viewBox="0 0 9 8" fill="none" xmlns="http://www.w3.org/2000/svg">
<path d="M6.97065 0.969986C7.11151 0.835875 7.29897 0.761733 7.49346 0.763205C7.68796 0.764677 7.87427 0.841647 8.01309 0.977874C8.15191 1.1141 8.23239 1.29893 8.23753 1.49336C8.24267 1.68779 8.17208 1.87661 8.04065 2.01999L4.05065 7.00999C3.98204 7.08389 3.89923 7.14319 3.80718 7.18435C3.71513 7.22552 3.61572 7.2477 3.5149 7.24956C3.41408 7.25143 3.31392 7.23295 3.2204 7.19522C3.12689 7.15749 3.04194 7.10129 2.97065 7.02999L0.324646 4.38399C0.250959 4.31532 0.191857 4.23252 0.150865 4.14052C0.109873 4.04853 0.087831 3.94921 0.0860542 3.84851C0.0842774 3.74781 0.102802 3.64778 0.140523 3.55439C0.178244 3.461 0.234389 3.37617 0.305608 3.30495C0.376826 3.23373 0.46166 3.17758 0.555048 3.13986C0.648437 3.10214 0.748466 3.08362 0.849169 3.08539C0.949872 3.08717 1.04918 3.10921 1.14118 3.15021C1.23318 3.1912 1.31598 3.2503 1.38465 3.32399L3.47865 5.41699L6.95165 0.991987C6.9579 0.984288 6.96458 0.976943 6.97165 0.969986H6.97065Z" fill="white"/>
</svg>
