<?xml version="1.0" encoding="utf-8"?>
<!-- Generator: Adobe Illustrator 24.3.0, SVG Export Plug-In . SVG Version: 6.00 Build 0)  -->
<svg version="1.1" id="Capa_1" xmlns="http://www.w3.org/2000/svg" xmlns:xlink="http://www.w3.org/1999/xlink" x="0px" y="0px"
	 viewBox="0 0 512 512" style="enable-background:new 0 0 512 512;" xml:space="preserve">
<style type="text/css">
	.st0{fill:#FFFFFF;}
</style>
<g>
	<g>
		<path class="st0" d="M492,327c11,0,20-9,20-20V177c0-44.1-35.9-80-80-80h-30.4c-8.6,0-16.2-5.4-18.9-13.6l-6.1-17.8
			C368.4,41.3,345.5,25,319.9,25H192.1c-25.2,0-47.9,15.9-56.4,39.6l-6.9,19.2c-2.9,7.9-10.4,13.2-18.8,13.2H80
			c-44.1,0-80,35.9-80,80v230c0,44.1,35.9,80,80,80h352c44.1,0,80-35.9,80-80c0-11-9-20-20-20s-20,9-20,20c0,22.1-17.9,40-40,40H80
			c-22.1,0-40-17.9-40-40V177c0-22.1,17.9-40,40-40h29.9c25.2,0,47.9-15.9,56.4-39.6l6.9-19.2c2.9-7.9,10.4-13.2,18.8-13.2h127.8
			c8.6,0,16.2,5.4,18.9,13.6l6.1,17.8c8.3,24.3,31.1,40.7,56.8,40.7H432c22.1,0,40,17.9,40,40v130C472,318,481,327,492,327z"/>
	</g>
</g>
<g>
	<g>
		<path class="st0" d="M257,157c-68.9,0-125,56.1-125,125s56.1,125,125,125s125-56.1,125-125S325.9,157,257,157z M257,367
			c-46.9,0-85-38.1-85-85s38.1-85,85-85s85,38.1,85,85S303.9,367,257,367z"/>
	</g>
</g>
</svg>
