<svg width="134" height="134" viewBox="0 0 134 134" fill="none" xmlns="http://www.w3.org/2000/svg">
<path d="M79.5403 4.33371L62.4734 79.4285L103.054 72.9146L69.1765 123.645L62.4734 79.4285L20.3379 33.618L79.5403 4.33371Z" fill="#7CEFE6"/>
<path d="M104.89 68.4873C100.819 64.4341 96.1116 68.2277 96.1116 68.2277V46.89C96.1116 46.1735 95.5309 45.5921 94.8143 45.5921C94.0971 45.5921 93.5164 46.1735 93.5164 46.89V70.0536C93.5164 70.0536 87.3277 74.9323 84.6677 76.1247V37.7053C84.6677 35.9193 86.1204 34.4666 87.9064 34.4666H90.2777C92.0637 34.4666 93.5164 35.9193 93.5164 37.7053V41.5767C93.5164 42.2939 94.0971 42.8746 94.8143 42.8746C95.5309 42.8746 96.1116 42.2939 96.1116 41.5767V37.7053C96.1116 34.4882 93.4948 31.8715 90.2777 31.8715H87.9064C84.6893 31.8715 82.0719 34.4882 82.0719 37.7053V77.1536C81.2978 77.3706 80.5036 77.5179 79.6964 77.5957V50.2335C79.6964 47.0002 77.0661 44.3699 73.8335 44.3699H71.5196C68.287 44.3699 65.6567 47.0002 65.6567 50.2335V63.4573L63.2806 64.7187V60.3179C63.2806 57.4071 60.9126 55.0391 58.0024 55.0391H54.5197C51.6089 55.0391 49.2416 57.4071 49.2416 60.3179V72.1708L45.0037 74.4198L33.1036 77.8208C31.033 78.4123 29.3038 79.7683 28.2357 81.6381C27.167 83.5086 26.877 85.6866 27.4191 87.7707L28.7502 92.8921C28.93 93.5856 29.6384 94.0014 30.3327 93.8215C31.0262 93.6411 31.4426 92.9326 31.2622 92.2384L29.9311 87.1177C29.1591 84.1474 30.866 81.1595 33.8174 80.3165L44.6975 77.207L52.875 99.0321C53.4226 100.494 53.336 104.663 49.0104 106.2L40.7883 108.067C37.9227 108.718 35.0991 107 34.3596 104.155L32.6905 97.7328C32.51 97.0393 31.8016 96.6229 31.108 96.8027C30.4138 96.9832 29.998 97.6916 30.1779 98.3858L31.8476 104.809C32.7858 108.418 35.9914 110.802 39.56 110.802C42.1822 110.802 49.5856 108.731 49.5856 108.731C51.8387 108.22 53.7599 106.759 54.8557 104.726C55.7602 103.048 56.0285 101.118 55.6405 99.2782L84.0863 92.3141C86.4388 91.7375 88.6723 90.62 90.5434 89.0822L104.386 77.7079C108.607 73.9649 106.131 69.7224 104.89 68.4873ZM71.5196 46.9657H73.8335C75.635 46.9657 77.1006 48.432 77.1006 50.2335V77.6606L68.9109 77.6572C68.1586 77.6504 68.6791 77.1536 68.7203 77.1198L71.0788 75.2094C73.2792 73.4268 74.7164 70.9486 75.3498 67.8424C75.752 65.8719 75.0003 63.8994 73.3894 62.6947C71.8846 61.5699 69.9493 61.3536 68.2525 62.0972V50.2335C68.2525 48.432 69.7181 46.9657 71.5196 46.9657ZM51.8374 60.3179C51.8374 58.8389 53.0406 57.6349 54.5197 57.6349H58.0024C59.4815 57.6349 60.6854 58.8389 60.6854 60.3179V66.0963L51.8367 70.7931V60.3179H51.8374ZM102.739 75.7029L88.8953 87.0772C87.323 88.3697 85.4464 89.3086 83.4691 89.7926L54.8138 96.8088L47.1074 76.243L69.111 64.5632C70.0054 64.088 71.0241 64.1671 71.8346 64.7734C72.6451 65.3798 73.0088 66.3329 72.8067 67.3239C72.2963 69.8244 71.1654 71.799 69.445 73.1922L67.0864 75.1033C66.1198 75.8861 65.7635 77.1495 66.1786 78.3224C66.5936 79.4945 67.6658 80.253 68.9096 80.253L78.3661 80.2571H78.3728C81.7393 80.2571 84.9746 79.2336 87.7286 77.2969L98.2971 69.865C99.7768 68.824 101.769 69.0078 103.033 70.3017C103.761 71.0453 105.186 73.2551 102.739 75.7029Z" fill="#004841"/>
<path d="M47.9042 99.8634C47.9042 97.0438 45.6105 94.7495 42.791 94.7495C39.9714 94.7495 37.6777 97.0438 37.6777 99.8634C37.6777 102.682 39.9714 104.977 42.791 104.977C45.6105 104.977 47.9042 102.682 47.9042 99.8634ZM40.2736 99.8634C40.2736 98.4749 41.4025 97.3453 42.791 97.3453C44.1788 97.3453 45.3084 98.4749 45.3084 99.8634C45.3084 101.251 44.1794 102.381 42.791 102.381C41.4025 102.381 40.2736 101.251 40.2736 99.8634Z" fill="#004841"/>
<path d="M33.4581 62.9494L52.3251 43.9371L56.569 46.132C58.0893 46.9182 59.9395 46.6492 61.1725 45.4621L71.4422 35.5764C71.4422 35.5764 71.1597 40.6538 75.4353 40.6538C77.6364 40.6538 79.4277 38.8624 79.4277 36.6607V26.1909C79.4277 26.1787 79.4271 26.1659 79.4271 26.153C79.4129 23.4214 77.4153 22.1985 75.4353 22.1985H65.0568C62.8551 22.1985 61.0644 23.9899 61.0644 26.1909C61.0644 30.5795 65.5307 30.1833 65.5307 30.1833L57.6959 37.7247L53.3905 35.498C51.8337 34.6922 49.9578 34.9876 48.7221 36.2314L27.7906 57.3245C26.2399 58.8874 26.2493 61.4203 27.8122 62.971C28.5653 63.718 31.1368 65.2708 33.4581 62.9494ZM29.6327 59.153L50.5642 38.06C50.8346 37.7883 51.2685 37.3124 52.198 37.8038L57.3295 40.4578C57.8237 40.7133 58.4253 40.6261 58.8262 40.2401L69.6502 29.821C70.0314 29.4539 70.1518 28.8915 69.9537 28.4007C69.7556 27.9093 69.2797 27.5882 68.7497 27.5882H65.0568C64.2868 27.5882 63.6602 26.9615 63.6602 26.1909C63.6602 25.4209 64.2868 24.7943 65.0568 24.7943H75.4353C75.8173 24.7943 76.8312 24.7943 76.8312 26.1828C76.8312 26.1943 76.8319 26.2058 76.8319 26.2179V36.6607C76.8319 37.4307 76.2053 38.0573 75.4353 38.0573C74.6647 38.0573 74.038 37.4307 74.038 36.6607V32.5256C74.038 32.0051 73.7271 31.5346 73.2485 31.3312C72.7699 31.127 72.2156 31.2298 71.8404 31.5907L59.3724 43.5923C58.9411 44.0074 58.2935 44.102 57.7621 43.8269L52.6719 41.1939C52.1683 40.9337 51.5538 41.0303 51.1543 41.4325L31.6161 61.1208C30.7643 61.9726 29.9038 61.3899 29.6401 61.1283C29.0939 60.5855 29.0905 59.6992 29.6327 59.153Z" fill="#004841"/>
</svg>
