<svg width="135" height="134" viewBox="0 0 135 134" fill="none" xmlns="http://www.w3.org/2000/svg">
<path d="M80.4764 4.33371L63.4095 79.4285L103.99 72.9146L70.1126 123.645L63.4095 79.4285L21.2739 33.618L80.4764 4.33371Z" fill="#7CEFE6"/>
<path d="M100.132 90.3087L99.0531 89.2295C98.6204 88.7966 97.9188 88.7967 97.4862 89.2293C97.0533 89.6621 97.0533 90.3637 97.486 90.7963L98.4084 91.7188L93.7076 96.4197L85.7157 88.428L90.4167 83.727L94.145 87.4554C94.5779 87.888 95.2794 87.888 95.7121 87.4554C96.1449 87.0225 96.1449 86.3211 95.7121 85.8883L91.2022 81.3785C91.2015 81.3778 91.2009 81.3771 91.2003 81.3763L88.0663 78.2423C88.0654 78.2414 88.0645 78.2408 88.0636 78.2399L85.2977 75.4741C84.921 75.0972 84.4202 74.8896 83.8873 74.8896C83.3544 74.8896 82.8535 75.0972 82.4769 75.4738L82.3202 75.6307L78.3553 71.6648C81.1892 68.124 83.236 63.928 84.2294 59.3435H92.0368C92.6489 59.3435 93.1448 58.8475 93.1448 58.2354C93.1448 57.6233 92.6489 57.1274 92.0368 57.1274H84.6223C84.7199 56.4227 84.7929 55.7103 84.8403 54.9909H97.3184C97.9304 54.9909 98.4264 54.4949 98.4264 53.8829C98.4264 53.2708 97.9304 52.7748 97.3184 52.7748H84.9058C84.9005 52.0578 84.8708 51.3454 84.8164 50.6382H92.0369C92.649 50.6382 93.145 50.1422 93.145 49.5301C93.145 48.918 92.649 48.4221 92.0369 48.4221H84.5633C83.7892 43.3281 81.7189 38.5632 78.461 34.4474C78.0812 33.9677 77.3845 33.8868 76.9045 34.2663C76.4247 34.6462 76.3436 35.343 76.7233 35.8229C80.6281 40.7558 82.692 46.6963 82.692 53.0022C82.692 68.2768 70.2653 80.7035 54.9907 80.7035C39.7161 80.7035 27.2893 68.2768 27.2893 53.0022C27.2893 37.7276 39.7161 25.3008 54.9907 25.3008C61.8958 25.3008 68.5106 27.8564 73.6162 32.4968C74.0689 32.9087 74.77 32.875 75.1814 32.4222C75.593 31.9694 75.5596 31.2685 75.1066 30.8569C69.5923 25.845 62.4483 23.0847 54.9907 23.0847C38.4941 23.0847 25.0732 36.5056 25.0732 53.0022C25.0732 67.5667 35.5353 79.7315 49.3386 82.3817V89.8572C49.3386 90.4693 49.8346 90.9653 50.4466 90.9653C51.0587 90.9653 51.5547 90.4693 51.5547 89.8572V82.7212C52.2599 82.8022 52.9723 82.8589 53.6913 82.8898V95.068C53.6913 95.6801 54.1873 96.1761 54.7994 96.1761C55.4115 96.1761 55.9074 95.6801 55.9074 95.068V82.9043C56.626 82.8825 57.3387 82.8367 58.0441 82.7649V89.8572C58.0441 90.4693 58.54 90.9653 59.1521 90.9653C59.7642 90.9653 60.2602 90.4693 60.2602 89.8572V82.4548C65.2631 81.5622 69.8382 79.4205 73.6534 76.3667L77.6194 80.3318L77.4628 80.4884C77.0859 80.8651 76.8783 81.366 76.8783 81.8989C76.8783 82.4318 77.0859 82.9326 77.4625 83.3092L80.2294 86.076C80.2299 86.0765 80.2304 86.0771 80.231 86.0777L83.365 89.2117C83.3656 89.2123 83.3665 89.2129 83.3671 89.2137L92.297 98.1434C92.6737 98.5204 93.1745 98.7279 93.7074 98.7279C94.2403 98.7279 94.741 98.5204 95.1179 98.1437L100.132 93.1294C100.509 92.7525 100.716 92.2518 100.716 91.7189C100.716 91.186 100.509 90.6852 100.132 90.3087ZM76.9037 73.3472L80.7529 77.1973L79.186 78.7643L75.3359 74.915C75.8775 74.412 76.4005 73.889 76.9037 73.3472ZM84.1486 86.861L82.5815 85.2941L87.2825 80.5932L88.8494 82.1602L84.1486 86.861ZM83.8874 77.1978L85.7155 79.0259L81.0146 83.7269L79.1865 81.8987L83.8874 77.1978Z" fill="#004841"/>
<path d="M39.5604 73.2857C43.9984 76.6215 49.3298 78.4202 54.991 78.4873C69.0437 78.4873 80.4763 67.0547 80.4763 53.0021C80.4763 38.9495 69.0437 27.5168 54.991 27.5168C48.2093 27.5168 41.8306 30.1713 37.0304 34.9912C32.2504 39.7905 29.5782 46.1828 29.5058 52.9903C29.4393 59.2573 31.7165 65.2809 35.9176 69.9516C36.3268 70.4065 37.0274 70.4437 37.4825 70.0345C37.9375 69.6253 37.9746 68.9245 37.5654 68.4696C33.7365 64.2129 31.6612 58.7239 31.7219 53.0139C31.788 46.7877 34.2308 40.9425 38.6006 36.5552C42.982 32.1558 48.8028 29.733 54.991 29.733C67.8217 29.733 78.2602 40.1714 78.2602 53.0021C78.2602 65.8328 67.8217 76.2712 55.0042 76.2714C49.8305 76.2099 44.9506 74.5648 40.8919 71.5143C40.403 71.1462 39.708 71.2451 39.3405 71.7342C38.9726 72.2234 39.0711 72.9181 39.5604 73.2857Z" fill="#004841"/>
<path d="M59.2013 33.2048H51.5188C50.582 33.2048 49.8198 33.967 49.8198 34.9038V38.819H42.6543C41.7175 38.819 40.9553 39.5812 40.9553 40.518V52.4111H39.4723C38.8602 52.4111 38.3643 52.9071 38.3643 53.5192C38.3643 54.1312 38.8602 54.6272 39.4723 54.6272H71.2477C71.8598 54.6272 72.3558 54.1312 72.3558 53.5192C72.3558 52.9071 71.8598 52.4111 71.2477 52.4111H69.7647V46.1321C69.7647 45.1953 69.0025 44.4331 68.0657 44.4331H60.9003V34.9038C60.9003 33.967 60.1381 33.2048 59.2013 33.2048ZM43.1714 41.0351H49.8198V52.4111H43.1714V41.0351ZM52.0359 35.4209H58.6842V52.4111H52.0359V35.4209ZM67.5486 46.6492V52.4111H60.9003V46.6492H67.5486Z" fill="#004841"/>
<path d="M67.7708 64.0166H62.5542L60.1844 57.9588C60.0169 57.5308 59.6065 57.2538 59.1427 57.2544C58.683 57.2585 58.2734 57.5462 58.1136 57.9773L54.8751 66.7101L52.6117 60.2947C52.4669 59.884 52.0949 59.5962 51.6609 59.5593C51.2274 59.5218 50.8116 59.7431 50.5992 60.1231L48.4256 64.0165H43.2228C42.6107 64.0165 42.1147 64.5124 42.1147 65.1245C42.1147 65.7366 42.6107 66.2326 43.2228 66.2326H49.076C49.4775 66.2326 49.8478 66.0153 50.0435 65.6647L51.3382 63.3459L53.8041 70.3355C53.9594 70.7756 54.3735 71.0711 54.8402 71.0749H54.8492C55.3121 71.0749 55.7268 70.7868 55.888 70.352L59.1801 61.4746L60.7658 65.5283C60.932 65.9531 61.3414 66.2327 61.7976 66.2327H67.7708C68.3829 66.2327 68.8788 65.7368 68.8788 65.1247C68.8788 64.5126 68.3829 64.0166 67.7708 64.0166Z" fill="#004841"/>
</svg>
