<svg width="136" height="134" viewBox="0 0 136 134" fill="none" xmlns="http://www.w3.org/2000/svg">
<path d="M78.5039 123.296L59.7787 48.5975L26.526 72.7534L33.8106 12.1879L59.7787 48.5975L118.073 70.411L78.5039 123.296Z" fill="#7CEFE6"/>
<path d="M103.247 35.1235V30.2965C103.247 29.7191 103.007 29.1908 102.629 28.8109C102.247 28.4259 101.726 28.1891 101.153 28.1891H96.8457C96.2666 28.1891 95.7468 28.4259 95.3642 28.8109C94.9864 29.191 94.7509 29.7191 94.7509 30.2965V35.1237H103.247V35.1235ZM48.9923 58.5928C48.4871 58.0797 48.4871 57.2552 48.9923 56.7468C49.4976 56.2337 50.3217 56.2337 50.827 56.7468L52.0093 57.9364L55.2911 54.6295C55.7964 54.121 56.6205 54.121 57.1258 54.6295C57.6359 55.1428 57.6359 55.9671 57.1258 56.4804L52.9268 60.7054C52.4213 61.2139 51.5973 61.2139 51.0919 60.7054L48.9923 58.5928ZM97.6992 43.5242C97.6992 42.8035 98.278 42.2162 98.9992 42.2162C99.7154 42.2162 100.294 42.8035 100.294 43.5242V70.9323C100.294 71.6528 99.7153 72.2403 98.9992 72.2403C98.278 72.2403 97.6992 71.6528 97.6992 70.9323V43.5242ZM77.2382 87.7089H85.2245V82.1067H77.2382V87.7089ZM86.5194 90.3199C72.4112 90.3199 58.2979 90.3199 44.1897 90.3199C43.4734 90.3199 42.8897 89.7324 42.8897 89.0117V80.7987C42.8897 80.078 43.4734 79.4958 44.1897 79.4958H53.4759V72.0526C53.4759 71.3321 54.0548 70.7498 54.7709 70.7498H65.3569C66.0732 70.7498 66.652 71.3323 66.652 72.0526V74.3724H75.9381C76.6543 74.3724 77.2381 74.9597 77.2381 75.6804V79.4958H86.5192C87.2355 79.4958 87.8192 80.0782 87.8192 80.7987V89.0117C87.8194 89.7324 87.2357 90.3199 86.5194 90.3199ZM66.6522 87.7089H74.6384V76.9884H66.6522V87.7089ZM56.071 87.7089H64.0571V75.6804V73.3608H56.071V87.7089ZM45.4848 87.7089H53.4761V82.1067H45.4848V87.7089ZM40.0103 42.2163H92.1511V36.4266V30.2965C92.1511 28.9984 92.6808 27.8189 93.5295 26.9649C94.3781 26.111 95.5506 25.5778 96.8457 25.5778H101.153C102.443 25.5778 103.615 26.111 104.464 26.9649C105.312 27.8188 105.842 28.9984 105.842 30.2965V36.4266V42.2163H111.474C112.19 42.2163 112.769 42.8037 112.769 43.5243V94.7224C112.769 95.443 112.19 96.0255 111.474 96.0255H75.5409C74.8246 96.0255 74.246 95.4429 74.246 94.7224C74.246 94.0018 74.8248 93.4144 75.5409 93.4144H110.174V44.8273H105.842V54.2694C105.842 54.9901 105.259 55.5774 104.542 55.5774C103.826 55.5774 103.247 54.9901 103.247 54.2694V43.5243V37.7348H94.7509V43.5243V76.722H103.247V60.1873C103.247 59.4666 103.826 58.8793 104.542 58.8793C105.259 58.8793 105.842 59.4666 105.842 60.1873V78.025C105.842 78.3408 105.759 78.4989 105.622 78.7653L100.157 89.5943C100.034 89.8362 99.8381 90.0434 99.578 90.1767C98.9403 90.5025 98.1652 90.2408 97.8414 89.5993L92.357 78.7408C92.2295 78.4792 92.1511 78.3312 92.1511 78.0251V44.8273H40.0103V54.7085C40.0103 55.4292 39.4314 56.0167 38.7152 56.0167C37.9989 56.0167 37.4152 55.4292 37.4152 54.7085V43.5243V29.2452C36.3016 28.5445 35.0459 28.1891 33.7312 28.1891C31.8083 28.1891 30.0668 28.9739 28.8011 30.2424C27.5404 31.5157 26.7603 33.2679 26.7603 35.2027V79.8118C26.829 79.7376 26.8977 79.6636 26.9662 79.5947C28.698 77.8522 31.0918 76.7763 33.7311 76.7763C34.7858 76.7763 35.8061 76.9541 36.7725 77.2748C36.9884 77.3489 37.2042 77.4328 37.415 77.5216V60.6267C37.415 59.9061 37.9987 59.3187 38.715 59.3187C39.4313 59.3187 40.0101 59.9061 40.0101 60.6267V79.7625C40.0101 80.034 39.9219 80.3103 39.7452 80.5475C39.3184 81.12 38.504 81.2333 37.9302 80.7991C37.3366 80.3451 36.6645 79.9847 35.9484 79.7477C35.2617 79.5158 34.516 79.3875 33.7312 79.3875C31.8083 79.3875 30.0668 80.1724 28.8011 81.4409C27.5404 82.7092 26.7603 84.4664 26.7603 86.4011C26.7603 88.341 27.5402 90.093 28.8011 91.3615C30.0666 92.6299 31.8081 93.4147 33.7312 93.4147H69.664C70.3803 93.4147 70.959 94.0022 70.959 94.7227C70.959 95.4434 70.3801 96.0258 69.664 96.0258H33.7312C31.092 96.0258 28.6981 94.9498 26.9664 93.2075C25.2348 91.4651 24.1655 89.0613 24.1655 86.4009V35.2026C24.1655 32.547 25.2348 30.1384 26.9664 28.3961C28.6981 26.6537 31.092 25.5776 33.7312 25.5776C35.7767 25.5776 37.7879 26.2489 39.4313 27.4731C39.7796 27.7099 40.0101 28.1097 40.0101 28.564V42.2163H40.0103ZM102.433 79.333H95.5604L98.9992 86.1394L102.433 79.333ZM85.0871 50.1283C85.8033 50.1283 86.382 50.7156 86.382 51.4363C86.382 52.1569 85.8032 52.7392 85.0871 52.7392H67.5204C66.8041 52.7392 66.2255 52.1568 66.2255 51.4363C66.2255 50.7156 66.8043 50.1283 67.5204 50.1283H85.0871ZM77.7828 62.5959C78.5039 62.5959 79.0828 63.1783 79.0828 63.8988C79.0828 64.6193 78.5039 65.2068 77.7828 65.2068H67.5206C66.8043 65.2068 66.2256 64.6195 66.2256 63.8988C66.2256 63.1781 66.8045 62.5959 67.5206 62.5959H77.7828ZM85.0871 56.362C85.8033 56.362 86.382 56.9446 86.382 57.67C86.382 58.3907 85.8032 58.9731 85.0871 58.9731H67.5204C66.8041 58.9731 66.2255 58.3905 66.2255 57.67C66.2255 56.9446 66.8043 56.362 67.5204 56.362H85.0871ZM45.6271 48.8795H60.4957C61.2119 48.8795 61.7906 49.4668 61.7906 50.1875V65.1476C61.7906 65.8683 61.2118 66.4556 60.4957 66.4556H45.6271C44.906 66.4556 44.3271 65.8683 44.3271 65.1476V50.1875C44.3271 49.4668 44.906 48.8795 45.6271 48.8795ZM59.1959 51.4955H46.9222V63.8447H59.1959V51.4955Z" fill="#004841"/>
</svg>
