<svg width="134" height="134" viewBox="0 0 134 134" fill="none" xmlns="http://www.w3.org/2000/svg">
<path d="M82.9194 126.296L64.1942 51.5975L30.9416 75.7534L38.2262 15.1879L64.1942 51.5975L122.488 73.411L82.9194 126.296Z" fill="#7CEFE6"/>
<path d="M100.905 61.2373C97.8719 59.7207 92.1842 59.7031 91.9436 59.7031C91.2224 59.7031 90.6377 60.2878 90.6377 61.009C90.6377 61.7302 91.2224 62.3149 91.9436 62.3149C93.4113 62.3151 97.6726 62.5411 99.7375 63.5735C99.925 63.6674 100.124 63.7116 100.32 63.7116C100.799 63.7116 101.261 63.4469 101.489 62.9895C101.812 62.3444 101.551 61.56 100.905 61.2373Z" fill="#004841"/>
<path d="M107.416 79.8301L102.023 78.2891C101.79 78.2226 101.627 78.007 101.627 77.7648V75.9646C102.066 75.6605 102.484 75.3203 102.876 74.9405C104.772 73.1004 105.816 70.6323 105.816 67.9905V65.5063L106.338 64.4635C106.91 63.3186 107.212 62.0369 107.212 60.7571V54.0273C107.212 53.3061 106.628 52.7214 105.906 52.7214H93.3396C88.77 52.7214 85.0521 56.4393 85.0521 61.0089V61.0867C85.0521 62.151 85.3037 63.2168 85.7796 64.1685L86.4484 65.5061V67.6391C86.4484 71.0195 88.1142 74.0525 90.6374 75.8777L90.6377 77.7645C90.6377 78.0554 90.6377 78.1759 89.5594 78.4841L86.9277 79.236L79.315 76.4678C79.3423 76.1086 79.2211 75.7433 78.9591 75.468L76.5264 72.9122V68.6218C76.7836 68.4099 77.0371 68.1923 77.2828 67.9621C80.3517 65.0856 82.1117 61.0244 82.1117 56.8199V53.3935C83.0384 51.377 83.508 49.2432 83.508 47.0456V33.0828C83.508 32.3616 82.9233 31.7769 82.2021 31.7769H62.6536C55.7741 31.7769 50.1773 37.3738 50.1773 44.2532V47.0459C50.1773 49.2435 50.6469 51.3774 51.5736 53.3939V56.3419C51.5736 61.2236 53.7442 65.6216 57.1589 68.521V72.9124L54.7262 75.4681C54.4642 75.7434 54.343 76.1087 54.3703 76.4679L46.3355 79.3895C45.7532 79.6013 45.2122 79.888 44.721 80.2354L43.4593 79.6046C47.2151 77.9697 48.4049 75.6705 48.462 75.5562C48.6459 75.1887 48.6459 74.7558 48.462 74.3882C47.5205 72.5053 47.4065 69.054 47.3149 66.281C47.2844 65.3578 47.2555 64.4856 47.2003 63.709C46.7551 57.4452 41.9932 52.7214 36.1236 52.7214C30.254 52.7214 25.4919 57.445 25.0468 63.709C24.9917 64.4858 24.9627 65.3579 24.9323 66.2813C24.8407 69.0542 24.7265 72.5051 23.7852 74.3881C23.6013 74.7556 23.6013 75.1885 23.7852 75.5561C23.8423 75.6703 25.0296 77.9649 28.7929 79.6016L25.2884 81.3538C23.4148 82.2913 22.251 84.1744 22.251 86.2689V95.9168C22.251 96.638 22.8357 97.2227 23.5569 97.2227C24.2781 97.2227 24.8628 96.638 24.8628 95.9168V86.2689C24.8628 85.1698 25.4734 84.1817 26.4564 83.6902L30.8204 81.5082L32.3384 82.9508C33.3998 83.9595 34.7614 84.4636 36.1236 84.4636C37.4854 84.4636 38.8477 83.9592 39.9088 82.9508L41.4266 81.5084L42.8496 82.2199C42.1795 83.2919 41.7993 84.5491 41.7993 85.866V95.9171C41.7993 96.6384 42.384 97.2231 43.1052 97.2231C43.8264 97.2231 44.4111 96.6384 44.4111 95.9171V85.866C44.4111 84.0732 45.543 82.457 47.228 81.8443L55.6994 78.7639L59.2259 84.0539C59.6767 84.7302 60.3991 85.1639 61.2079 85.244C61.2981 85.2529 61.3878 85.2572 61.4773 85.2572C62.1908 85.2572 62.8742 84.9764 63.3851 84.4657L65.5366 82.3143V95.9173C65.5366 96.6385 66.1213 97.2232 66.8425 97.2232C67.5637 97.2232 68.1484 96.6385 68.1484 95.9173V82.3143L70.2998 84.4657C70.8105 84.9766 71.494 85.2574 72.2077 85.2574C72.297 85.2574 72.3869 85.2531 72.4769 85.2442C73.2858 85.1641 74.0083 84.7304 74.4591 84.0541L77.9857 78.7643L86.4569 81.8446C88.1417 82.4574 89.2739 84.0736 89.2739 85.8663V95.9175C89.2739 96.6387 89.8586 97.2234 90.5798 97.2234C91.301 97.2234 91.8857 96.6387 91.8857 95.9175V85.8663C91.8857 84.0506 91.1643 82.3477 89.9541 81.0883L90.2768 80.9961C90.6022 80.9032 91.0462 80.7759 91.492 80.5574L94.8262 83.8916V95.9175C94.8262 96.6387 95.4109 97.2234 96.1322 97.2234C96.8534 97.2234 97.4381 96.6387 97.4381 95.9175V83.8916L100.749 80.5805C100.925 80.67 101.11 80.7456 101.305 80.8011L106.698 82.3421C107.929 82.6938 108.789 83.8338 108.789 85.1143V95.9175C108.789 96.6387 109.374 97.2234 110.095 97.2234C110.817 97.2234 111.401 96.6387 111.401 95.9175V85.1143C111.401 82.6735 109.762 80.5006 107.416 79.8301ZM30.6288 77.5235C28.1861 76.6445 26.9608 75.4727 26.4377 74.8328C26.7943 73.9005 27.0256 72.8328 27.1821 71.7057C27.9023 73.4325 29.1084 74.9066 30.6288 75.9583V77.5235ZM38.11 81.0578C36.9961 82.1161 35.2512 82.1159 34.1377 81.0576L32.9232 79.9035C33.1282 79.5196 33.2408 79.0843 33.2408 78.6283V77.2363C34.1518 77.521 35.1203 77.6746 36.1239 77.6746C37.1264 77.6746 38.0943 77.5203 39.0069 77.2372L39.0067 78.6281C39.0067 79.0843 39.1192 79.5198 39.3243 79.9039L38.11 81.0578ZM36.1243 75.0628C32.2247 75.0628 29.0523 71.8903 29.0523 67.9908C29.0523 67.2696 28.4676 66.6849 27.7464 66.6849C27.6733 66.6849 27.6019 66.6924 27.5321 66.7041C27.5359 66.5918 27.5396 66.4793 27.5434 66.368C27.5725 65.4701 27.6005 64.6219 27.6522 63.8944C27.819 61.548 28.7567 59.3857 30.2924 57.8058C31.8419 56.2115 33.9129 55.3336 36.1239 55.3336C38.3349 55.3336 40.4058 56.2115 41.9554 57.8058C43.4912 59.3857 44.4288 61.548 44.5957 63.8944C44.6472 64.6218 44.6754 65.4697 44.705 66.3675C44.7076 66.4446 44.7102 66.5228 44.7128 66.6005C43.292 64.4114 41.0977 62.7982 38.2625 61.8872C35.6432 61.0456 33.3904 61.0977 33.2953 61.1001C32.9534 61.1097 32.6288 61.2529 32.3915 61.4991L30.0353 63.9427C29.5347 64.4619 29.5496 65.2886 30.0689 65.7892C30.5881 66.2898 31.4148 66.2747 31.9154 65.7556L33.876 63.7224C35.5645 63.805 40.9966 64.4367 43.1092 69.0887C42.5776 72.5168 39.6311 75.0628 36.1243 75.0628ZM41.6183 77.5278L41.6185 75.9703C43.1377 74.9244 44.3456 73.453 45.0663 71.7132C45.2228 72.8377 45.4539 73.903 45.8098 74.8331C45.2897 75.4669 44.0587 76.6492 41.6183 77.5278ZM54.1854 56.3418V53.1017C54.1854 52.9051 54.141 52.711 54.0555 52.5339C53.2152 50.7937 52.7891 48.9473 52.7891 47.0459V44.2534C52.7891 38.814 57.2144 34.3889 62.6536 34.3889H80.8962V47.0461C80.8962 48.9475 80.4701 50.7939 79.6298 52.5341C79.5443 52.7111 79.4999 52.9053 79.4999 53.1019V56.8202C79.4999 60.3568 78.0782 63.6371 75.4967 66.0569C75.1744 66.3588 74.8399 66.6419 74.4941 66.9057C74.4864 66.9109 74.4791 66.9167 74.4716 66.9221C72.0532 68.7582 69.0911 69.6506 65.9976 69.4501C59.3739 69.0213 54.1854 63.2634 54.1854 56.3418ZM61.5384 82.6186C61.5293 82.6277 61.5083 82.6491 61.4656 82.6446C61.4231 82.6404 61.4064 82.6155 61.3993 82.6047L57.3379 76.5125L58.6448 75.1392L64.8061 79.3507L61.5384 82.6186ZM66.8426 77.579L59.7707 72.7451V70.3074C61.6005 71.2965 63.6494 71.9152 65.8286 72.0562C66.1728 72.0785 66.5149 72.0895 66.8561 72.0895C69.3531 72.0895 71.7564 71.4926 73.9146 70.3596V72.7451L66.8426 77.579ZM72.286 82.605C72.2789 82.6158 72.2622 82.6407 72.2197 82.6449C72.177 82.6503 72.1561 82.6278 72.1469 82.619L68.8792 79.3512L75.0405 75.1396L76.3476 76.5129L72.286 82.605ZM96.1322 81.5032L93.1686 78.5398C93.2203 78.3049 93.2496 78.0477 93.2494 77.7641L93.2492 77.213C94.0716 77.4829 94.9384 77.6431 95.8353 77.6699C95.9359 77.673 96.0357 77.6744 96.136 77.6744C97.1271 77.6744 98.0945 77.5247 99.0153 77.239V77.7648C99.0153 78.0253 99.048 78.2805 99.1096 78.5259L96.1322 81.5032ZM101.057 73.0663C99.6727 74.4095 97.8443 75.1188 95.9138 75.0593C92.1347 74.9459 89.0602 71.6173 89.0602 67.6395V65.1981C89.0602 64.9952 89.013 64.7954 88.9223 64.6141L88.1156 63.0007C87.8201 62.4095 87.6639 61.7479 87.6639 61.0869V61.0091C87.6639 57.8794 90.2101 55.3334 93.3396 55.3334H104.601V60.7573C104.601 61.6338 104.393 62.5116 104.001 63.2956L103.342 64.6141C103.251 64.7955 103.204 64.9952 103.204 65.1981V67.9907C103.204 69.9199 102.442 71.7224 101.057 73.0663Z" fill="#004841"/>
<path d="M104.51 86.2332C103.789 86.2332 103.204 86.8179 103.204 87.5391V95.9169C103.204 96.6381 103.789 97.2228 104.51 97.2228C105.231 97.2228 105.816 96.6381 105.816 95.9169V87.5391C105.816 86.818 105.231 86.2332 104.51 86.2332Z" fill="#004841"/>
<path d="M29.1423 87.9592C28.4211 87.9592 27.8364 88.5439 27.8364 89.2651V95.9168C27.8364 96.638 28.4211 97.2227 29.1423 97.2227C29.8635 97.2227 30.4482 96.638 30.4482 95.9168V89.2651C30.4482 88.5441 29.8635 87.9592 29.1423 87.9592Z" fill="#004841"/>
<path d="M77.5404 47.519C72.6013 42.5798 62.2674 43.5241 58.0533 44.1593C56.7259 44.3594 55.7627 45.4826 55.7627 46.8302V49.8386C55.7627 50.5598 56.3474 51.1445 57.0686 51.1445C57.7898 51.1445 58.3745 50.5598 58.3745 49.8386V46.83C58.3745 46.7856 58.4038 46.7476 58.4428 46.7417C60.126 46.488 63.4662 46.0966 66.9268 46.3273C70.9992 46.5984 73.9488 47.6207 75.6937 49.3657C76.2037 49.8757 77.0306 49.8757 77.5404 49.3657C78.0504 48.8557 78.0504 48.0288 77.5404 47.519Z" fill="#004841"/>
<path d="M51.4836 89.0259C50.7624 89.0259 50.1777 89.6106 50.1777 90.3318V95.9171C50.1777 96.6383 50.7624 97.223 51.4836 97.223C52.2049 97.223 52.7896 96.6383 52.7896 95.9171V90.3318C52.7896 89.6108 52.2049 89.0259 51.4836 89.0259Z" fill="#004841"/>
<path d="M82.2019 89.0259C81.4807 89.0259 80.896 89.6106 80.896 90.3318V95.9171C80.896 96.6383 81.4807 97.223 82.2019 97.223C82.9231 97.223 83.5078 96.6383 83.5078 95.9171V90.3318C83.5078 89.6108 82.9231 89.0259 82.2019 89.0259Z" fill="#004841"/>
</svg>
