<svg width="19" height="22" viewBox="0 0 19 22" fill="none" xmlns="http://www.w3.org/2000/svg">
<path d="M4.3507 3.02029L4.36642 3.01086L4.4387 2.96843C4.88786 2.71429 5.35412 2.49166 5.83413 2.30214C6.77385 1.93286 8.0467 1.57143 9.42956 1.57143C10.8124 1.57143 12.0853 1.93286 13.0266 2.30214C13.5061 2.49165 13.9718 2.71428 14.4204 2.96843C14.4534 2.98729 14.477 2.99986 14.4911 3.01086L14.5068 3.02029H14.5084C14.6842 3.12725 14.8949 3.16098 15.0953 3.11423C15.2957 3.06748 15.4698 2.94399 15.5801 2.77028C15.6904 2.59658 15.7282 2.38653 15.6853 2.18527C15.6424 1.98402 15.5223 1.80763 15.3507 1.694H15.3491L15.346 1.69086L15.3381 1.68614L15.3098 1.66886C15.1629 1.581 15.0135 1.49716 14.862 1.41743C14.4527 1.20243 14.032 1.00991 13.6017 0.840714C12.5488 0.424286 11.0717 0 9.42956 0C7.78585 0 6.31027 0.424286 5.25742 0.840714C4.7026 1.05925 4.16384 1.31655 3.64513 1.61071C3.613 1.62979 3.58104 1.64917 3.54928 1.66886L3.52099 1.68457L3.51313 1.69086L3.50999 1.69243C3.3339 1.80391 3.20932 1.98078 3.16364 2.18413C3.11796 2.38747 3.15493 2.60063 3.26642 2.77671C3.3779 2.9528 3.55477 3.07738 3.75812 3.12306C3.96146 3.16874 4.17462 3.13177 4.3507 3.02029Z" fill="#6850FF"/>
<path d="M3.14286 4.71429C2.30932 4.71429 1.50992 5.04542 0.920521 5.63482C0.331121 6.22422 0 7.02361 0 7.85715V14.1429C0 14.9764 0.331121 15.7758 0.920521 16.3652C1.50992 16.9546 2.30932 17.2857 3.14286 17.2857H10.2143C11.0478 17.2857 11.8472 16.9546 12.4366 16.3652C13.026 15.7758 13.3571 14.9764 13.3571 14.1429V13.926L17.6817 16.3963C17.8012 16.4645 17.9365 16.5002 18.0741 16.4998C18.2117 16.4993 18.3467 16.4627 18.4657 16.3936C18.5848 16.3246 18.6835 16.2255 18.7522 16.1063C18.8209 15.9871 18.8571 15.8519 18.8571 15.7143V6.28572C18.8571 6.14813 18.8209 6.01296 18.7522 5.89374C18.6835 5.77452 18.5848 5.67542 18.4657 5.60637C18.3467 5.53732 18.2117 5.50073 18.0741 5.50027C17.9365 5.4998 17.8012 5.53548 17.6817 5.60372L13.3571 8.07401V7.85715C13.3571 7.02361 13.026 6.22422 12.4366 5.63482C11.8472 5.04542 11.0478 4.71429 10.2143 4.71429H3.14286ZM13.3571 9.88429L17.2857 7.64029V14.3597L13.3571 12.1157V9.88429ZM1.57143 7.85715C1.57143 7.44038 1.73699 7.04068 2.03169 6.74598C2.32639 6.45128 2.72609 6.28572 3.14286 6.28572H10.2143C10.6311 6.28572 11.0308 6.45128 11.3255 6.74598C11.6202 7.04068 11.7857 7.44038 11.7857 7.85715V14.1429C11.7857 14.5596 11.6202 14.9593 11.3255 15.254C11.0308 15.5487 10.6311 15.7143 10.2143 15.7143H3.14286C2.72609 15.7143 2.32639 15.5487 2.03169 15.254C1.73699 14.9593 1.57143 14.5596 1.57143 14.1429V7.85715Z" fill="#6850FF"/>
<path d="M4.35196 18.981L4.35039 18.9795C4.1746 18.8725 3.96386 18.8388 3.76347 18.8855C3.56307 18.9323 3.38902 19.0558 3.2787 19.2295C3.16839 19.4032 3.13062 19.6132 3.17351 19.8145C3.21641 20.0157 3.33654 20.1921 3.5081 20.3057H3.50967L3.51282 20.3089L3.52067 20.3136L3.54896 20.3309C3.57096 20.3466 3.60396 20.3639 3.64481 20.389C3.7281 20.4362 3.84596 20.5037 3.99682 20.5839C4.29696 20.741 4.72753 20.95 5.2571 21.159C6.30996 21.5739 7.7871 21.9997 9.42924 21.9997C11.073 21.9997 12.5485 21.5755 13.6014 21.159C14.1562 20.9405 14.695 20.6832 15.2137 20.389L15.3095 20.3309L15.3378 20.3152L15.3457 20.3089L15.3488 20.3073H15.3504C15.5265 20.1956 15.651 20.0185 15.6965 19.8151C15.742 19.6116 15.7049 19.3983 15.5932 19.2222C15.4815 19.0462 15.3044 18.9217 15.1009 18.8761C14.8974 18.8306 14.6842 18.8678 14.5081 18.9795L14.4924 18.9905L14.4201 19.0313C13.971 19.2855 13.5047 19.5081 13.0247 19.6976C12.085 20.0669 10.8121 20.4283 9.42924 20.4283C8.04639 20.4283 6.77353 20.0669 5.83224 19.6976C5.35279 19.508 4.88705 19.2853 4.43839 19.0313C4.41469 19.0174 4.39112 19.0032 4.36767 18.9889L4.35196 18.981Z" fill="#6850FF"/>
</svg>
