<svg width="98" height="125" viewBox="0 0 98 125" fill="none" xmlns="http://www.w3.org/2000/svg">
<path d="M61.9593 -2.61664e-05L44.8924 75.0947L85.4734 68.5808L51.5955 119.311L44.8924 75.0947L2.75683 29.2843L61.9593 -2.61664e-05Z" fill="#7CEFE6"/>
<path d="M17.6038 64.9342L11.2445 72.5585V66.0282C11.2445 65.0841 10.4791 64.3186 9.53494 64.3186H5.12445C4.93101 64.3263 4.7403 64.3667 4.56032 64.4383C4.44317 64.308 4.38723 64.1338 4.40646 63.9596V22.402C4.40646 21.9488 4.77379 21.5815 5.22702 21.5815H63.3498C63.803 21.5815 64.1703 21.9488 64.1703 22.402V42.0954H67.5892V22.402C67.5804 20.0909 65.7289 18.2089 63.418 18.1625H5.29545C2.94485 18.1342 1.01622 20.0168 0.987858 22.3676C0.987698 22.3791 0.987698 22.3907 0.987537 22.402V63.9598C0.964299 65.2352 1.556 66.4437 2.57736 67.2079C3.38558 67.7797 4.40214 67.973 5.36389 67.7379H7.82555V77.294C7.82363 78.2381 8.58761 79.005 9.53173 79.0069C10.0419 79.0079 10.5259 78.7809 10.8514 78.3881L19.792 67.738H24.9205V64.3191H18.903C18.4006 64.323 17.9254 64.5481 17.6038 64.9342Z" fill="#004841"/>
<path d="M43.7248 76.2851C45.6131 76.2851 47.1438 74.7544 47.1438 72.8662C47.1438 70.978 45.6131 69.4473 43.7248 69.4473C41.8366 69.4473 40.3059 70.978 40.3059 72.8662C40.3059 74.7544 41.8366 76.2851 43.7248 76.2851Z" fill="#004841"/>
<path d="M55.6912 76.2851C57.5794 76.2851 59.1101 74.7544 59.1101 72.8662C59.1101 70.978 57.5794 69.4473 55.6912 69.4473C53.803 69.4473 52.2722 70.978 52.2722 72.8662C52.2722 74.7544 53.803 76.2851 55.6912 76.2851Z" fill="#004841"/>
<path d="M67.6577 76.2851C69.5459 76.2851 71.0766 74.7544 71.0766 72.8662C71.0766 70.978 69.5459 69.4473 67.6577 69.4473C65.7694 69.4473 64.2387 70.978 64.2387 72.8662C64.2387 74.7544 65.7694 76.2851 67.6577 76.2851Z" fill="#004841"/>
<path d="M82.5474 97.2949L76.2052 90.9527C86.194 79.6207 85.1052 62.3368 73.7732 52.3479C62.4412 42.3589 45.1573 43.4479 35.1683 54.7799C25.1793 66.1119 26.2683 83.3958 37.6003 93.3848C42.5974 97.7895 49.0301 100.219 55.6913 100.218H81.3337C82.2778 100.224 83.0476 99.4628 83.053 98.5187C83.0557 98.0593 82.8735 97.6183 82.5474 97.2949ZM55.6912 96.7992C42.4733 96.7982 31.759 86.0823 31.76 72.8646C31.7609 59.6469 42.4769 48.9326 55.6945 48.9334C68.9122 48.9342 79.6265 59.6503 79.6257 72.868C79.6253 79.2153 77.1035 85.3023 72.6151 89.7902C71.9523 90.4569 71.9523 91.5339 72.6151 92.2006L77.2136 96.799H55.6912V96.7992Z" fill="#004841"/>
<path d="M7.82556 26.71V33.548H11.2445V28.4195H16.373V25.0006H9.53495C8.59083 25.0006 7.82556 25.7659 7.82556 26.71Z" fill="#004841"/>
<path d="M23.2108 25.0006H19.7919V28.4195H23.2108V25.0006Z" fill="#004841"/>
</svg>
