<svg width="125" height="125" viewBox="0 0 125 125" fill="none" xmlns="http://www.w3.org/2000/svg">
<path d="M79.1578 124.06L60.4326 49.3618L27.18 73.5177L34.4646 12.9522L60.4326 49.3618L118.726 71.1753L79.1578 124.06Z" fill="#7CEFE6"/>
<path d="M47.8 43.6667H82.2667V46.8H47.8V43.6667Z" fill="#004841"/>
<path d="M38.4 53.0667H82.2667V56.2H38.4V53.0667Z" fill="#004841"/>
<path d="M38.4 62.4667H72.8667V65.6H38.4V62.4667Z" fill="#004841"/>
<path d="M76 62.4667H82.2667V65.6H76V62.4667Z" fill="#004841"/>
<path d="M38.4 43.6667H44.6667V46.8H38.4V43.6667Z" fill="#004841"/>
<path d="M38.4 71.8667H41.5333V75H38.4V71.8667Z" fill="#004841"/>
<path d="M44.6667 71.8667H82.2667V75H44.6667V71.8667Z" fill="#004841"/>
<path d="M54.0667 85.9667C53.5511 86.0195 53.0378 85.8481 52.6568 85.497C51.7343 84.7358 50.5616 84.3449 49.3667 84.4C47.7862 84.4987 46.3014 85.1933 45.2136 86.3446C44.353 87.0813 43.7908 87.5334 43.1 87.5334C42.5844 87.5846 42.0719 87.414 41.6902 87.0637C40.7676 86.3025 39.5949 85.9116 38.4 85.9667V89.1C38.9156 89.0495 39.4281 89.2201 39.8099 89.5705C40.7324 90.3316 41.9051 90.7225 43.1 90.6667C44.6804 90.5688 46.1653 89.8734 47.2531 88.7229C48.1136 87.9862 48.6759 87.5334 49.3667 87.5334C49.8823 87.4813 50.3956 87.6527 50.7765 88.0038C51.6991 88.765 52.8718 89.1559 54.0667 89.1V85.9667Z" fill="#004841"/>
<path d="M38.4 93.8H54.0667V96.9334H38.4V93.8Z" fill="#004841"/>
<path d="M83.8333 93.8C83.841 87.9541 79.805 82.8792 74.1067 81.5696C68.4092 80.2607 62.5625 83.0644 60.0174 88.3274C57.4716 93.5904 58.9028 99.9144 63.4667 103.569V106.333H32.1333V42.1C32.1333 39.5044 34.2378 37.4 36.8333 37.4H90.1405C89.104 38.7486 88.5395 40.3995 88.5333 42.1V93.8H91.6667V57.7667H108.9C113.224 57.7621 116.728 54.2577 116.733 49.9333V31.1333C116.733 29.403 115.33 28 113.6 28H44.6667C42.9363 28 41.5333 29.403 41.5333 31.1333V34.2667H36.8333C32.5089 34.272 29.0054 37.7764 29 42.1V106.333C29 108.064 30.403 109.467 32.1333 109.467H63.4667V120.433C63.4667 121.067 63.8484 121.638 64.4336 121.881C65.0188 122.123 65.6927 121.989 66.141 121.541L71.3 116.382L76.459 121.541C76.9073 121.989 77.5812 122.123 78.1664 121.881C78.7516 121.638 79.1333 121.067 79.1333 120.433V103.569C82.103 101.196 83.8326 97.6012 83.8333 93.8ZM91.6667 54.6333V42.1C91.6667 39.5044 93.7711 37.4 96.3667 37.4C98.9622 37.4 101.067 39.5044 101.067 42.1V49.9333C101.064 51.6293 101.614 53.2793 102.633 54.6333H91.6667ZM44.6667 31.1333H113.6V49.9333C113.6 52.5297 111.496 54.6333 108.9 54.6333C106.304 54.6333 104.2 52.5297 104.2 49.9333V42.1C104.202 40.0223 103.378 38.0288 101.908 36.5593C100.439 35.0898 98.4451 34.2651 96.3667 34.2667H44.6667V31.1333ZM61.9 93.8C61.9 88.6089 66.1089 84.4 71.3 84.4C76.4911 84.4 80.7 88.6089 80.7 93.8C80.7 98.9919 76.4911 103.2 71.3 103.2C66.1104 103.195 61.9054 98.9896 61.9 93.8ZM76 116.652L72.4077 113.06C71.7957 112.448 70.8043 112.448 70.1923 113.06L66.6 116.652V105.411C69.6125 106.641 72.9875 106.641 76 105.411V116.652Z" fill="#004841"/>
<path d="M71.3 101.633C75.6259 101.633 79.1333 98.1267 79.1333 93.8C79.1333 89.4741 75.6259 85.9667 71.3 85.9667C66.9741 85.9667 63.4667 89.4741 63.4667 93.8C63.472 98.1244 66.9756 101.629 71.3 101.633ZM71.3 89.1C73.8956 89.1 76 91.2045 76 93.8C76 96.3963 73.8956 98.5 71.3 98.5C68.7045 98.5 66.6 96.3963 66.6 93.8C66.6 91.2045 68.7045 89.1 71.3 89.1Z" fill="#004841"/>
</svg>
