<svg width="117" height="118" viewBox="0 0 117 118" fill="none" xmlns="http://www.w3.org/2000/svg">
<path d="M49.0147 93.4391L0 65.8927L73.9411 62.1553L67.4687 26.9508L116.868 51.6072L73.9411 62.1553L49.0147 93.4391Z" fill="#7CEFE6"/>
<path d="M52.7947 31.5729C47.1295 31.5729 41.5915 33.2529 36.8811 36.4003C32.1706 39.5477 28.4993 44.0213 26.3313 49.2553C24.1633 54.4892 23.596 60.2485 24.7013 65.8049C25.8065 71.3613 28.5346 76.4651 32.5405 80.471C36.5464 84.4769 41.6502 87.205 47.2066 88.3102C52.763 89.4155 58.5223 88.8482 63.7562 86.6802C68.9902 84.5122 73.4638 80.8409 76.6112 76.1304C79.7586 71.42 81.4386 65.882 81.4386 60.2168C81.4299 52.6226 78.4093 45.342 73.0394 39.9721C67.6695 34.6022 60.3889 31.5816 52.7947 31.5729ZM52.7947 86.1326C47.6691 86.1326 42.6585 84.6127 38.3967 81.765C34.1348 78.9173 30.8131 74.8698 28.8516 70.1343C26.8901 65.3988 26.3769 60.188 27.3768 55.1608C28.3768 50.1337 30.8451 45.5159 34.4695 41.8915C38.0939 38.2671 42.7116 35.7989 47.7388 34.7989C52.766 33.7989 57.9768 34.3121 62.7123 36.2736C67.4478 38.2352 71.4953 41.5569 74.343 45.8187C77.1906 50.0805 78.7106 55.0911 78.7106 60.2168C78.7026 67.0876 75.9697 73.6748 71.1112 78.5333C66.2528 83.3917 59.6656 86.1247 52.7947 86.1326Z" fill="#004841"/>
<path d="M80.2014 80.4748C85.3786 73.4774 87.6891 64.7675 86.661 56.124C85.633 47.4805 81.344 39.5556 74.6701 33.9677C67.9961 28.3798 59.4406 25.5506 50.751 26.0579C42.0614 26.5651 33.8933 30.3706 27.9148 36.6971C21.9363 43.0236 18.5986 51.3937 18.5832 60.0981C18.5679 68.8025 21.8762 77.1844 27.8323 83.5319C33.7885 89.8794 41.9432 93.7136 50.6309 94.2514C59.3187 94.7893 67.8841 91.9902 74.5777 86.4259L94.9093 106.749C95.2856 107.14 95.7359 107.452 96.234 107.666C96.732 107.881 97.2678 107.994 97.8101 108C98.3524 108.005 98.8903 107.902 99.3925 107.697C99.8947 107.493 100.351 107.19 100.735 106.807C101.119 106.424 101.423 105.968 101.628 105.466C101.834 104.964 101.938 104.427 101.934 103.884C101.93 103.342 101.818 102.806 101.604 102.308C101.39 101.809 101.08 101.358 100.69 100.981L80.2014 80.4748ZM21.4229 60.2168C21.4229 54.012 23.2628 47.9466 26.71 42.7875C30.1572 37.6284 35.0568 33.6074 40.7892 31.233C46.5217 28.8585 52.8295 28.2373 58.9151 29.4477C65.0006 30.6582 70.5905 33.6461 74.978 38.0335C79.3654 42.421 82.3533 48.0109 83.5637 54.0964C84.7742 60.182 84.153 66.4898 81.7785 72.2222C79.404 77.9547 75.383 82.8543 70.224 86.3015C65.0649 89.7487 58.9995 91.5886 52.7947 91.5886C44.4772 91.5796 36.5029 88.2714 30.6215 82.39C24.7401 76.5086 21.4319 68.5343 21.4229 60.2168ZM98.7613 104.83C98.5079 105.083 98.1645 105.225 97.8065 105.225C97.4485 105.225 97.1051 105.083 96.8517 104.83L76.6018 84.594C77.2538 83.9575 77.8785 83.2955 78.476 82.6081L98.7613 102.91C98.8903 103.033 98.9931 103.181 99.0634 103.345C99.1337 103.509 99.1701 103.686 99.1705 103.865C99.1706 104.045 99.1345 104.223 99.0642 104.389C98.9939 104.555 98.8909 104.705 98.7613 104.83Z" fill="#004841"/>
<path d="M39.1548 69.7647H44.6108C44.9725 69.7647 45.3195 69.621 45.5753 69.3652C45.8311 69.1094 45.9748 68.7625 45.9748 68.4007V54.7608C45.9748 54.399 45.8311 54.0521 45.5753 53.7963C45.3195 53.5405 44.9725 53.3968 44.6108 53.3968H39.1548C38.7931 53.3968 38.4461 53.5405 38.1903 53.7963C37.9345 54.0521 37.7908 54.399 37.7908 54.7608V68.4007C37.7908 68.7625 37.9345 69.1094 38.1903 69.3652C38.4461 69.621 38.7931 69.7647 39.1548 69.7647ZM40.5188 56.1248H43.2468V67.0367H40.5188V56.1248Z" fill="#004841"/>
<path d="M50.0668 69.7647H55.5227C55.8845 69.7647 56.2314 69.621 56.4872 69.3652C56.743 69.1094 56.8867 68.7625 56.8867 68.4007V52.0328C56.8867 51.6711 56.743 51.3241 56.4872 51.0683C56.2314 50.8125 55.8845 50.6688 55.5227 50.6688H50.0668C49.705 50.6688 49.3581 50.8125 49.1023 51.0683C48.8465 51.3241 48.7028 51.6711 48.7028 52.0328V68.4007C48.7028 68.7625 48.8465 69.1094 49.1023 69.3652C49.3581 69.621 49.705 69.7647 50.0668 69.7647ZM51.4307 53.3968H54.1587V67.0367H51.4307V53.3968Z" fill="#004841"/>
<path d="M66.4346 47.9408H60.9787C60.6169 47.9408 60.27 48.0845 60.0142 48.3403C59.7584 48.5961 59.6147 48.943 59.6147 49.3048V68.4007C59.6147 68.7624 59.7584 69.1094 60.0142 69.3652C60.27 69.621 60.6169 69.7647 60.9787 69.7647H66.4346C66.7964 69.7647 67.1433 69.621 67.3991 69.3652C67.6549 69.1094 67.7986 68.7624 67.7986 68.4007V49.3048C67.7986 48.943 67.6549 48.5961 67.3991 48.3403C67.1433 48.0845 66.7964 47.9408 66.4346 47.9408ZM65.0707 67.0367H62.3427V50.6688H65.0707V67.0367Z" fill="#004841"/>
<path d="M83.3672 31.573H86.8945V28.845H82.8025C82.4408 28.845 82.0939 28.9888 81.8382 29.2446L77.7462 33.3366L79.6749 35.2653L83.3672 31.573Z" fill="#004841"/>
<path d="M89.6225 28.845H101.898V31.573H89.6225V28.845Z" fill="#004841"/>
<path d="M89.6225 34.3009H92.3505V37.0289H89.6225V34.3009Z" fill="#004841"/>
<path d="M95.0785 34.3009H101.898V37.0289H95.0785V34.3009Z" fill="#004841"/>
<path d="M89.6225 39.7569H101.898V42.4849H89.6225V39.7569Z" fill="#004841"/>
<path d="M38.5901 102.501H35.0628V105.229H39.1548C39.5165 105.228 39.8634 105.085 40.1191 104.829L44.2111 100.737L42.2824 98.8082L38.5901 102.501Z" fill="#004841"/>
<path d="M20.0589 102.501H32.3348V105.229H20.0589V102.501Z" fill="#004841"/>
<path d="M29.6069 97.0446H32.3349V99.7725H29.6069V97.0446Z" fill="#004841"/>
<path d="M20.0589 97.0446H26.8789V99.7725H20.0589V97.0446Z" fill="#004841"/>
<path d="M20.0589 91.5886H32.3348V94.3166H20.0589V91.5886Z" fill="#004841"/>
<path d="M37.7908 72.4927H67.7987V75.2207H37.7908V72.4927Z" fill="#004841"/>
</svg>
