<svg width="93" height="82" viewBox="0 0 93 82" fill="none" xmlns="http://www.w3.org/2000/svg">
<path d="M28.9545 78.7548C29.1828 78.7548 29.4111 78.7168 29.6394 78.6406C29.8296 78.5644 30.0199 78.4502 30.2101 78.3359C30.3623 78.2217 30.5145 78.0313 30.6667 77.8789C30.7808 77.6885 30.895 77.4981 30.933 77.2696H31.4277C31.3516 77.5743 31.2755 77.8028 31.1233 78.0694C30.9711 78.2979 30.7808 78.5263 30.5906 78.7168C30.3623 78.9072 30.134 79.0214 29.8677 79.1357C29.6014 79.2499 29.297 79.288 29.0306 79.288C28.6882 79.288 28.3458 79.2118 28.0414 79.0976C27.737 78.9833 27.4707 78.7929 27.2424 78.5644C27.0141 78.3359 26.8619 78.0694 26.7097 77.7647C26.5956 77.46 26.5195 77.1173 26.5195 76.7745C26.5195 76.4318 26.5956 76.0891 26.7097 75.7844C26.8239 75.4797 27.0141 75.2132 27.2424 74.9847C27.4707 74.7562 27.737 74.6038 28.0414 74.4515C28.3458 74.3373 28.6882 74.2611 29.0306 74.2611C29.335 74.2611 29.6014 74.2992 29.8677 74.4134C30.134 74.5277 30.3623 74.6419 30.5906 74.8323C30.8189 75.0227 30.9711 75.2132 31.1233 75.4797C31.2755 75.7082 31.3896 75.9748 31.4277 76.2795H30.933C30.8569 76.051 30.7808 75.8606 30.6667 75.6701C30.5526 75.4797 30.4004 75.3274 30.2101 75.2132C30.0579 75.0989 29.8677 74.9847 29.6394 74.9085C29.4492 74.8323 29.2209 74.7942 28.9545 74.7942C28.6882 74.7942 28.4219 74.8323 28.1936 74.9466C27.9653 75.0608 27.737 75.2132 27.5468 75.3655C27.3565 75.5559 27.2424 75.7463 27.1282 76.0129C27.0141 76.2414 26.976 76.508 26.976 76.7745C26.976 77.0411 27.0141 77.3077 27.1282 77.5362C27.2424 77.7647 27.3946 77.9932 27.5468 78.1836C27.737 78.374 27.9272 78.4883 28.1936 78.6025C28.4219 78.6787 28.6882 78.7548 28.9545 78.7548Z" fill="white"/>
<path d="M34.4715 74.2611C34.8139 74.2611 35.1183 74.3373 35.4227 74.4515C35.7271 74.5658 35.9934 74.7562 36.2217 74.9847C36.45 75.2132 36.6402 75.4797 36.7544 75.7844C36.8685 76.0891 36.9446 76.4318 36.9446 76.7745C36.9446 77.1173 36.8685 77.46 36.7544 77.7647C36.6402 78.0694 36.45 78.3359 36.2217 78.5644C35.9934 78.7929 35.7271 78.9453 35.4227 79.0976C35.1183 79.2118 34.8139 79.288 34.4715 79.288C34.1291 79.288 33.7866 79.2118 33.4822 79.0976C33.1779 78.9833 32.9115 78.7929 32.6832 78.5644C32.455 78.3359 32.3028 78.0694 32.1506 77.7647C32.0364 77.46 31.9603 77.1173 31.9603 76.7745C31.9603 76.4318 32.0364 76.0891 32.1506 75.7844C32.2647 75.4797 32.455 75.2132 32.6832 74.9847C32.9115 74.7562 33.1779 74.6038 33.4822 74.4515C33.7866 74.3373 34.1291 74.2611 34.4715 74.2611ZM34.4715 78.7548C34.7378 78.7548 35.0042 78.7168 35.2325 78.6025C35.4607 78.4883 35.689 78.3359 35.8793 78.1836C36.0695 77.9932 36.1837 77.8028 36.2978 77.5362C36.4119 77.3077 36.45 77.0411 36.45 76.7745C36.45 76.508 36.4119 76.2414 36.2978 76.0129C36.1837 75.7844 36.0315 75.5559 35.8793 75.3655C35.689 75.1751 35.4988 75.0608 35.2325 74.9466C35.0042 74.8323 34.7378 74.7942 34.4715 74.7942C34.2052 74.7942 33.9388 74.8323 33.7105 74.9466C33.4822 75.0608 33.254 75.2132 33.0637 75.3655C32.8735 75.5559 32.7593 75.7463 32.6452 76.0129C32.531 76.2414 32.493 76.508 32.493 76.7745C32.493 77.0411 32.531 77.3077 32.6452 77.5362C32.7593 77.7647 32.9115 77.9932 33.0637 78.1836C33.254 78.374 33.4442 78.4883 33.7105 78.6025C33.9388 78.6787 34.2052 78.7548 34.4715 78.7548Z" fill="white"/>
<path d="M40.0645 74.2611C40.4069 74.2611 40.7113 74.3373 41.0157 74.4515C41.3201 74.5658 41.5864 74.7562 41.8147 74.9847C42.043 75.2132 42.2332 75.4797 42.3474 75.7844C42.4615 76.0891 42.5376 76.3937 42.5376 76.7365V79.2118H42.043V76.7365C42.043 76.4699 42.0049 76.2033 41.8908 75.9748C41.7766 75.7463 41.6245 75.5178 41.4723 75.3274C41.282 75.137 41.0918 75.0227 40.8254 74.9085C40.5972 74.7942 40.3308 74.7562 40.0645 74.7562C39.7982 74.7562 39.5318 74.7942 39.3035 74.9085C39.0752 75.0227 38.847 75.1751 38.6567 75.3274C38.4665 75.5178 38.3523 75.7082 38.2382 75.9748C38.124 76.2033 38.086 76.4699 38.086 76.7365V79.2118H37.5914V76.7365C37.5914 76.3937 37.6675 76.0891 37.7816 75.7844C37.8958 75.4797 38.086 75.2132 38.3143 74.9847C38.5426 74.7562 38.8089 74.5658 39.1133 74.4515C39.3796 74.3373 39.7221 74.2611 40.0645 74.2611Z" fill="white"/>
<path d="M43.9073 74.9847C43.7171 75.137 43.641 75.3274 43.641 75.594C43.641 75.8606 43.7171 76.051 43.9073 76.2414C44.0976 76.4318 44.2878 76.508 44.5542 76.508H45.6576H46.799C46.9892 76.508 47.1414 76.5461 47.3317 76.6222C47.4839 76.6984 47.636 76.7745 47.7502 76.9269C47.8643 77.0411 47.9785 77.1935 48.0546 77.3458C48.1307 77.4981 48.1687 77.6885 48.1687 77.8789C48.1687 78.0694 48.1307 78.2598 48.0546 78.4121C47.9785 78.5644 47.9024 78.7168 47.7502 78.8691C47.636 78.9833 47.4839 79.0976 47.3317 79.1738C47.1795 79.2499 46.9892 79.288 46.799 79.288H43.1464V78.7929H46.799C47.0273 78.7929 47.2175 78.7168 47.4078 78.5263C47.5599 78.3359 47.6741 78.1455 47.6741 77.8789C47.6741 77.6124 47.598 77.422 47.4078 77.2696C47.2556 77.1173 47.0273 77.0411 46.799 77.0411H45.6576H44.5542C44.3639 77.0411 44.1737 77.003 43.9834 76.9269C43.8312 76.8507 43.6791 76.7365 43.5269 76.6222C43.4127 76.508 43.2986 76.3556 43.2225 76.1652C43.1464 76.0129 43.1083 75.8225 43.1083 75.6321C43.1083 75.4417 43.1464 75.2893 43.2225 75.0989C43.2986 74.9466 43.3747 74.7943 43.5269 74.68C43.641 74.5658 43.7932 74.4515 43.9834 74.3753C44.1356 74.2992 44.3259 74.2611 44.5542 74.2611H48.1307V74.7562H44.5542C44.2878 74.7562 44.0595 74.8323 43.9073 74.9847Z" fill="white"/>
<path d="M51.2126 79.2499C50.8702 79.2499 50.5278 79.1738 50.2234 79.0595C49.919 78.9453 49.6527 78.7548 49.4244 78.5263C49.1961 78.2978 49.0439 78.0313 48.8917 77.7266C48.7776 77.422 48.7015 77.0792 48.7015 76.7365V74.2611H49.1961V76.7365C49.1961 77.003 49.2341 77.2696 49.3483 77.4981C49.4624 77.7266 49.6146 77.9551 49.7668 78.1455C49.9571 78.3359 50.1473 78.4502 50.4136 78.5644C50.6419 78.6787 50.9083 78.7168 51.1746 78.7168C51.4409 78.7168 51.7073 78.6787 51.9356 78.5644C52.1638 78.4502 52.3921 78.2978 52.5824 78.1455C52.7726 77.9551 52.8868 77.7647 53.0009 77.4981C53.115 77.2696 53.1531 77.003 53.1531 76.7365V74.2611H53.6477V76.7365C53.6477 77.0792 53.5716 77.422 53.4575 77.7266C53.3433 78.0313 53.1531 78.2978 52.9248 78.5263C52.6965 78.7548 52.4302 78.9072 52.1258 79.0595C51.8595 79.1738 51.5551 79.2499 51.2126 79.2499Z" fill="white"/>
<path d="M54.2945 79.2499V73.3852H54.7891V79.2499H54.2945Z" fill="white"/>
<path d="M60.3822 76.7365C60.3822 77.0792 60.3061 77.422 60.192 77.7267C60.0779 78.0313 59.8876 78.2979 59.6593 78.5264C59.431 78.7549 59.1647 78.9072 58.8603 79.0595C58.5559 79.1738 58.2515 79.25 57.9091 79.25C57.5667 79.25 57.2243 79.1738 56.9199 79.0595C56.6155 78.9453 56.3491 78.7549 56.1209 78.5264C55.8926 78.2979 55.7404 78.0313 55.5882 77.7267C55.474 77.422 55.3979 77.0792 55.3979 76.7365V73.4995H55.8926V75.2513H57.2242V75.7464H55.8926V76.7365C55.8926 77.0031 55.9306 77.2697 56.0448 77.4982C56.1589 77.7267 56.3111 77.9551 56.4633 78.1456C56.6535 78.336 56.8438 78.4502 57.1101 78.5645C57.3384 78.6787 57.6047 78.7168 57.8711 78.7168C58.1374 78.7168 58.4037 78.6787 58.632 78.5645C58.8603 78.4502 59.0886 78.2979 59.2788 78.1456C59.4691 77.9551 59.5832 77.7647 59.6974 77.4982C59.8115 77.2697 59.8496 77.0031 59.8496 76.7365H60.3822Z" fill="white"/>
<path d="M60.991 73.8803V73.3852H61.4856V73.8803H60.991ZM60.991 79.2499V74.2611H61.4856V79.2499H60.991Z" fill="white"/>
<path d="M64.5674 74.2611C64.9098 74.2611 65.2142 74.3373 65.5186 74.4515C65.8229 74.5658 66.0893 74.7562 66.3176 74.9847C66.5459 75.2132 66.7361 75.4797 66.8502 75.7844C66.9644 76.0891 67.0405 76.3937 67.0405 76.7365V79.2118H66.5459V76.7365C66.5459 76.4699 66.5078 76.2033 66.3937 75.9748C66.2795 75.7463 66.1273 75.5178 65.9751 75.3274C65.7849 75.137 65.5947 75.0227 65.3283 74.9085C65.1 74.7942 64.8337 74.7562 64.5674 74.7562C64.301 74.7562 64.0347 74.7942 63.8064 74.9085C63.5781 75.0227 63.3498 75.1751 63.1596 75.3274C62.9693 75.5178 62.8552 75.7082 62.7411 75.9748C62.6269 76.2033 62.5889 76.4699 62.5889 76.7365V79.2118H62.0942V76.7365C62.0942 76.3937 62.1703 76.0891 62.2845 75.7844C62.3986 75.4797 62.5889 75.2132 62.8172 74.9847C63.0454 74.7562 63.3118 74.5658 63.6162 74.4515C63.8825 74.3373 64.2249 74.2611 64.5674 74.2611Z" fill="white"/>
<path d="M72.6337 76.8126V79.2499C72.6337 79.5927 72.5576 79.8973 72.4434 80.202C72.3293 80.5067 72.139 80.7732 71.9108 81.0017C71.6825 81.2302 71.4161 81.4206 71.1117 81.5349C70.8074 81.6491 70.4649 81.7253 70.1225 81.7253C69.7801 81.7253 69.4757 81.6491 69.1713 81.5349C68.8669 81.4206 68.6006 81.2302 68.3723 81.0017C68.144 80.7732 67.9538 80.5067 67.8396 80.202C67.7255 79.8973 67.6494 79.5927 67.6494 79.2499H68.144C68.144 79.5165 68.1821 79.7831 68.2962 80.0116C68.4103 80.2401 68.5625 80.4686 68.7147 80.659C68.905 80.8494 69.0952 80.9636 69.3615 81.0779C69.5898 81.1921 69.8562 81.2302 70.1225 81.2302C70.4269 81.2302 70.6552 81.1921 70.9215 81.0779C71.1498 80.9636 71.3781 80.8113 71.5683 80.659C71.7586 80.4686 71.8727 80.2782 71.9869 80.0116C72.101 79.7831 72.139 79.5165 72.139 79.2499V78.2598C71.9108 78.5644 71.6444 78.7929 71.302 78.9834C70.9596 79.1738 70.5791 79.2499 70.1605 79.2499C69.8181 79.2499 69.5137 79.1738 69.2093 79.0595C68.905 78.9453 68.6386 78.7549 68.4103 78.5264C68.1821 78.2979 67.9918 78.0313 67.8777 77.7266C67.7635 77.422 67.6874 77.0792 67.6874 76.7365C67.6874 76.3937 67.7635 76.051 67.8777 75.7463C67.9918 75.4417 68.1821 75.1751 68.4103 74.9466C68.6386 74.7181 68.905 74.5658 69.2093 74.4134C69.5137 74.2992 69.8181 74.223 70.1605 74.223C70.503 74.223 70.8454 74.2992 71.1498 74.4134C71.4542 74.5277 71.7205 74.7181 71.9488 74.9466C72.1771 75.1751 72.3293 75.4417 72.4815 75.7463C72.5956 76.051 72.6717 76.3937 72.6717 76.7365V76.8126H72.6337ZM70.1605 78.7549C70.4649 78.7549 70.6932 78.7168 70.9596 78.6025C71.1878 78.4883 71.4161 78.3359 71.6064 78.1836C71.7966 77.9932 71.9108 77.8028 72.0249 77.5362C72.139 77.3077 72.1771 77.0411 72.1771 76.7746C72.1771 76.508 72.139 76.2414 72.0249 76.0129C71.9108 75.7844 71.7966 75.5559 71.6064 75.3655C71.4161 75.1751 71.2259 75.0608 70.9596 74.9466C70.7313 74.8323 70.4649 74.7943 70.1605 74.7943C69.8942 74.7943 69.6279 74.8323 69.3996 74.9466C69.1713 75.0608 68.943 75.2132 68.7528 75.3655C68.5625 75.5559 68.4484 75.7463 68.3342 76.0129C68.2201 76.2414 68.1821 76.508 68.1821 76.7746C68.1821 77.0411 68.2201 77.3077 68.3342 77.5362C68.4484 77.7647 68.6006 77.9932 68.7528 78.1836C68.943 78.374 69.1333 78.4883 69.3996 78.6025C69.6279 78.6787 69.8562 78.7549 70.1605 78.7549Z" fill="white"/>
<path d="M10.5012 61.8462V68.7391H7.68561V49.0504H13.9635C14.8767 49.0504 15.7518 49.1266 16.5888 49.2789C17.4259 49.4312 18.1488 49.6978 18.7576 50.1548C19.3663 50.6118 19.899 51.2211 20.2414 52.0209C20.6219 52.8206 20.8122 53.8869 20.8122 55.1817C20.8122 56.4384 20.6219 57.5048 20.2414 58.3807C19.861 59.2185 19.3663 59.904 18.7576 60.4371C18.1488 60.9703 17.502 61.313 16.7791 61.5415C16.0562 61.77 15.3713 61.8462 14.7245 61.8462H10.5012ZM10.5012 51.4115V59.4851H14.2679C15.6376 59.4851 16.6269 59.1042 17.1976 58.3807C17.7683 57.6571 18.0727 56.6289 18.0727 55.296C18.0727 54.6105 17.9966 54.0012 17.8444 53.5061C17.6922 53.011 17.4259 52.5921 17.0835 52.2874C16.741 51.9828 16.2464 51.7543 15.6757 51.64C15.105 51.4877 14.344 51.4115 13.5069 51.4115H10.5012Z" fill="#0E685F" stroke="#0E685F" stroke-width="0.7795" stroke-miterlimit="10"/>
<path d="M34.3954 66.9873L34.0149 69.0057H33.8246C33.2539 69.0057 32.7973 68.9676 32.4169 68.8914C32.0364 68.8153 31.732 68.701 31.4657 68.5487C31.1993 68.3964 30.971 68.1679 30.8189 67.9013C30.6286 67.6347 30.4764 67.33 30.2862 66.9492C29.1067 68.2821 27.737 68.9676 26.0629 68.9676C24.7692 68.9676 23.7419 68.5868 22.981 67.8632C22.22 67.1396 21.8395 66.1495 21.8395 64.9689C21.8395 64.0169 22.1059 63.2171 22.6005 62.6078C23.1332 61.9985 23.78 61.5034 24.579 61.1226C25.378 60.7417 26.2531 60.4752 27.2423 60.3228C28.2316 60.1705 29.1447 60.0563 30.0959 60.0563C30.0959 58.8376 29.8677 57.9998 29.373 57.5428C28.8784 57.0858 28.1175 56.8954 27.0902 56.8954C25.9107 56.8954 24.6931 57.3143 23.4756 58.114L23.0951 56.0576C24.3127 55.1055 25.8726 54.6104 27.775 54.6104C28.6501 54.6104 29.4111 54.7247 30.0198 54.9532C30.6286 55.1817 31.1232 55.5625 31.5037 56.0957C31.8842 56.6288 32.1505 57.2762 32.3408 58.1521C32.531 58.9899 32.6071 60.0182 32.6071 61.2368V64.0549C32.6071 65.1593 32.6832 65.8829 32.8734 66.3018C33.0637 66.7207 33.4822 66.9492 34.1671 66.9492H34.3954V66.9873ZM30.0198 65.1213V61.8461C28.0033 61.9223 26.5575 62.1889 25.6824 62.6459C24.8073 63.1029 24.3888 63.8645 24.3888 64.8928C24.3888 66.3018 25.1117 66.9873 26.5194 66.9873C27.2043 66.9873 27.8511 66.835 28.4599 66.4922C29.1067 66.1495 29.6013 65.6925 30.0198 65.1213Z" fill="#0E685F" stroke="#0E685F" stroke-width="0.7795" stroke-miterlimit="10"/>
<path d="M61.4476 61.8462H51.479C51.7834 65.1213 53.4955 66.7588 56.6535 66.7588C58.0613 66.7588 59.393 66.4923 60.6105 65.9591L60.9529 67.9394C59.3169 68.663 57.795 69.0057 56.3491 69.0057C55.1696 69.0057 54.1423 68.8153 53.2292 68.4345C52.316 68.0536 51.517 67.5586 50.8702 66.9112C50.2234 66.2638 49.7288 65.5021 49.4244 64.5881C49.082 63.7122 48.9298 62.7221 48.9298 61.6938C48.9298 60.7037 49.082 59.7897 49.4244 58.9138C49.7288 58.0379 50.1854 57.3143 50.7561 56.6669C51.3268 56.0576 52.0497 55.5245 52.8868 55.1817C53.7238 54.8009 54.637 54.6486 55.6643 54.6486C56.5394 54.6486 57.3384 54.7628 58.0613 55.0294C58.7842 55.296 59.431 55.6768 59.9256 56.1719C60.4583 56.6669 60.8388 57.2763 61.1432 57.9998C61.4476 58.7234 61.5617 59.5231 61.5617 60.4371C61.5617 61.0084 61.5237 61.4653 61.4476 61.8462ZM55.5882 56.8954C53.5336 56.8954 52.2399 57.9617 51.7073 60.0563H58.9364C58.9364 59.0281 58.6701 58.2664 58.0993 57.6952C57.5286 57.2001 56.6916 56.8954 55.5882 56.8954Z" fill="#0E685F" stroke="#0E685F" stroke-width="0.7795" stroke-miterlimit="10"/>
<path d="M75.1067 66.9873C73.8892 68.3202 72.2151 69.0057 70.1225 69.0057C69.0571 69.0057 68.1059 68.8153 67.2689 68.4726C66.4318 68.0917 65.7089 67.5967 65.1382 66.9873C64.5674 66.3399 64.1109 65.5783 63.8065 64.7024C63.5021 63.8265 63.3499 62.8744 63.3499 61.8462C63.3499 60.818 63.5021 59.8659 63.8445 58.99C64.1489 58.1141 64.6055 57.3524 65.2143 56.7431C65.785 56.0957 66.5079 55.6006 67.345 55.2579C68.182 54.8771 69.1332 54.7247 70.1985 54.7247C71.2639 54.7247 72.177 54.9151 73.0521 55.2579C73.8892 55.6387 74.6121 56.1338 75.1828 56.7812C75.7536 57.4286 76.2101 58.1903 76.5526 59.0662C76.8569 59.9421 77.0472 60.8941 77.0472 61.8843C76.933 63.9026 76.3243 65.6164 75.1067 66.9873ZM73.2424 58.1903C72.5195 57.3144 71.4541 56.8954 70.1225 56.8954C68.7908 56.8954 67.7254 57.3144 67.0025 58.1903C66.2796 59.0281 65.8991 60.2467 65.8991 61.8462C65.8991 63.4076 66.2796 64.6262 67.0025 65.5021C67.7254 66.3399 68.7908 66.7969 70.1225 66.7969C71.4922 66.7969 72.5195 66.3399 73.2804 65.464C74.0033 64.5881 74.3838 63.3695 74.3838 61.8843C74.3458 60.2848 74.0033 59.0662 73.2424 58.1903Z" fill="#0E685F" stroke="#0E685F" stroke-width="0.7795" stroke-miterlimit="10"/>
<path d="M91.9619 68.701H89.4508V61.1226C89.4508 59.6374 89.1844 58.571 88.6137 57.8856C88.043 57.2381 87.1299 56.8954 85.8362 56.8954C84.0099 56.8954 82.7543 57.5047 82.0695 58.6853V68.701H79.5583V54.9151H81.5368L81.8031 56.3622C83.0968 55.1817 84.6187 54.6104 86.3689 54.6104C90.0976 54.6104 92 56.7812 92 61.0845V68.701H91.9619Z" fill="#0E685F" stroke="#0E685F" stroke-width="0.7795" stroke-miterlimit="10"/>
<path d="M39.5698 48.8981H36.4879V68.8534H39.5698V48.8981Z" fill="#0E685F"/>
<path d="M46.3044 48.8981H43.2225V68.8534H46.3044V48.8981Z" fill="#0E685F"/>
<path d="M52.2019 44.3282H7.53354V42.6144H53.1911L52.2019 44.3282Z" fill="#0E685F"/>
<path d="M12.8222 0L7.4574 11.0059L15.866 0H12.8222Z" fill="#0B685F"/>
<path d="M16.5509 31.2278L21.3069 29.1713L22.0298 28.4097L14.8768 28.3716L16.5509 31.2278Z" fill="#54C2B9"/>
<path d="M15.866 0L7.4574 11.0059L22.3342 7.65461L15.866 0Z" fill="#93D4CD"/>
<path d="M11.5285 27.648L10.8817 29.3998L14.8768 28.3716L11.5285 27.648Z" fill="#93D4CD"/>
<path d="M10.8817 29.3998L16.5509 31.2278L14.8767 28.3716L10.8817 29.3998Z" fill="#0B685F"/>
<path d="M47.7882 10.4727L31.0852 2.39917L31.1993 14.9284L47.7882 10.4727Z" fill="#54C2B9"/>
<path d="M31.0852 2.39917L47.7882 10.4727L52.2018 2.39917H31.0852Z" fill="#0B685F"/>
<path d="M52.2018 2.39917L47.7882 10.4727L68.0678 13.9382L52.2018 2.39917Z" fill="#54C2B9"/>
<path d="M29.373 12.1102L31.1993 14.9284L31.0852 2.39917L22.3342 7.65457L31.1993 14.9284L29.373 12.1102Z" fill="#93D4CD"/>
<path d="M56.9197 47.451L52.4681 48.0984L60.6865 54.382L63.6542 50.688L56.9197 47.451Z" fill="#4C4C4C"/>
<path d="M15.2953 33.0938V34.9218L21.2688 34.6933L18.6816 32.5987L15.2953 33.0938Z" fill="#0B685F"/>
<path d="M60.306 42.6526L57.1861 39.606L52.4681 48.0984L56.9197 47.451L60.306 42.6526Z" fill="#9E9F9E"/>
<path d="M35.7271 32.0656L32.3789 32.5606V34.4267L38.3144 34.1601L38.6188 29.3617L35.7271 32.0656Z" fill="#54C2B9"/>
<path d="M52.2018 25.9343L70.0843 40.7104L70.0082 47.0702L63.6542 50.688L60.6865 54.382L72.1389 49.5836L73.4325 30.0853L52.2018 25.9343Z" fill="#54C2B9"/>
<path d="M61.9041 47.2606L64.9479 47.451L68.7146 43.8331L65.2903 44.3282L61.9041 47.2606Z" fill="#4C4C4C"/>
<path d="M65.2903 44.3282L68.7147 43.8331L65.6708 38.7681L57.1861 39.6059L60.3061 42.6526L65.2903 44.3282Z" fill="#D2D3D1"/>
<path d="M38.6187 29.3617L45.7337 30.2376L45.6576 26.7721L39.1894 27.5718L38.6187 29.3617Z" fill="#54C2B9"/>
<path d="M26.8999 24.4871L26.4433 27.8384L32.1885 28.4477L31.1993 14.9284L26.8999 24.4871Z" fill="#93D4CD"/>
<path d="M32.1886 28.4477L39.1894 27.5718L31.1993 14.9284L32.1886 28.4477Z" fill="#54C2B9"/>
<path d="M25.7964 26.5817L26.8998 24.4871L22.0297 28.4096L21.5731 29.8949L26.4433 27.8384L26.8998 24.4871L25.7964 26.5817Z" fill="#54C2B9"/>
<path d="M22.3342 7.65457L14.5724 19.0794L31.1994 14.9284L22.3342 7.65457Z" fill="#0B685F"/>
<path d="M18.1108 27.0006L14.8768 28.3715L22.0298 28.4096L26.8999 24.4871L18.1108 27.0006Z" fill="#93D4CD"/>
<path d="M52.2018 25.9343L73.4325 30.0853L47.7882 10.4727L52.2018 25.9343Z" fill="#0B685F"/>
<path d="M68.0678 13.9382L47.7882 10.4727L73.4325 30.0853L68.0678 13.9382Z" fill="#93D4CD"/>
<path d="M31.1993 14.9284L35.0041 14.4714L31.1993 14.9284L39.1894 27.5718L47.7883 10.4727L31.1993 14.9284Z" fill="#0B685F"/>
<path d="M39.1894 27.5718L45.6575 26.7721L52.2018 25.9343L47.7882 10.4727L39.1894 27.5718Z" fill="#54C2B9"/>
<path d="M18.6817 32.5987L21.269 34.6933L25.0357 31.1135L26.4435 27.8384L21.5733 29.8949L18.6817 32.5987Z" fill="#54C2B9"/>
<path d="M5.28867 17.8227L8.63689 16.7944L3.95699 17.4038L8.63689 16.7944L0 16.9087V21.1359L8.63689 16.7944L5.28867 17.8227Z" fill="#54C2B9"/>
<path d="M6.84863 15.3473L8.63689 16.7944L7.4574 11.0059L0 16.9087L8.63689 16.7944L6.84863 15.3473Z" fill="#93D4CD"/>
<path d="M22.3342 7.65457L7.4574 11.0058L8.63688 16.7944L22.3342 7.65457Z" fill="#54C2B9"/>
<path d="M0 21.1359L9.77833 26.1247L8.63689 16.7944L0 21.1359Z" fill="#54C2B9"/>
<path d="M31.1994 14.9284L18.1109 27.0006L26.9 24.4871L31.1994 14.9284Z" fill="#0B685F"/>
<path d="M14.5724 19.0794L18.1109 27.0006L31.1994 14.9284L14.5724 19.0794Z" fill="#54C2B9"/>
<path d="M14.5724 19.0794L13.393 16.7182L14.5724 19.0794L22.3342 7.65457L8.63696 16.7944L9.7784 26.1246L14.5724 19.0794Z" fill="#93D4CD"/>
<path d="M9.77826 26.1247L18.1108 27.0006L14.5723 19.0794L9.77826 26.1247Z" fill="#0B685F"/>
<path d="M38.6188 29.3617L38.3144 34.1601L42.0811 30.5803V30.5423V30.6184L40.6353 34.2744L43.8694 35.0741L45.7337 30.2376L38.6188 29.3617Z" fill="#0B685F"/>
<path d="M37.7815 36.1785L38.5805 37.8541L43.8692 35.0741L40.6351 34.2744L37.7815 36.1785Z" fill="#54C2B9"/>
</svg>
