<?xml version="1.0" encoding="utf-8"?>
<!-- Generator: Adobe Illustrator 22.0.0, SVG Export Plug-In . SVG Version: 6.00 Build 0)  -->
<svg version="1.1" id="Layer_1" xmlns="http://www.w3.org/2000/svg" xmlns:xlink="http://www.w3.org/1999/xlink" x="0px" y="0px"
	 viewBox="0 0 93 82" style="enable-background:new 0 0 93 82;" xml:space="preserve">
<style type="text/css">
	.st0{fill:#FFFFFF;}
	.st1{fill:#551368;stroke:#551368;stroke-width:0.7795;stroke-miterlimit:10;}
	.st2{fill:#551368;}
	.st3{fill:#530A68;}
	.st4{fill:#AC54C2;}
	.st5{fill:#C593D4;}
	.st6{fill:#4C4C4C;}
	.st7{fill:#9E9E9F;}
	.st8{fill:#D1D2D3;}
</style>
<path class="st0" d="M29,78.8c0.2,0,0.5,0,0.7-0.1c0.2-0.1,0.4-0.2,0.6-0.3c0.2-0.1,0.3-0.3,0.5-0.5c0.1-0.2,0.2-0.4,0.3-0.6h0.5
	c-0.1,0.3-0.2,0.5-0.3,0.8c-0.2,0.2-0.3,0.5-0.5,0.6c-0.2,0.2-0.5,0.3-0.7,0.4c-0.3,0.1-0.6,0.2-0.8,0.2c-0.3,0-0.7-0.1-1-0.2
	c-0.3-0.1-0.6-0.3-0.8-0.5s-0.4-0.5-0.5-0.8c-0.1-0.3-0.2-0.6-0.2-1c0-0.3,0.1-0.7,0.2-1c0.1-0.3,0.3-0.6,0.5-0.8s0.5-0.4,0.8-0.5
	c0.3-0.1,0.6-0.2,1-0.2c0.3,0,0.6,0,0.8,0.2c0.3,0.1,0.5,0.2,0.7,0.4c0.2,0.2,0.4,0.4,0.5,0.6c0.2,0.2,0.3,0.5,0.3,0.8h-0.5
	c-0.1-0.2-0.2-0.4-0.3-0.6c-0.1-0.2-0.3-0.3-0.5-0.5c-0.2-0.1-0.3-0.2-0.6-0.3c-0.2-0.1-0.4-0.1-0.7-0.1c-0.3,0-0.5,0-0.8,0.2
	c-0.2,0.1-0.5,0.3-0.6,0.4c-0.2,0.2-0.3,0.4-0.4,0.6C27,76.2,27,76.5,27,76.8c0,0.3,0,0.5,0.2,0.8c0.1,0.2,0.3,0.5,0.4,0.6
	c0.2,0.2,0.4,0.3,0.6,0.4C28.4,78.7,28.7,78.8,29,78.8z"/>
<path class="st0" d="M34.5,74.3c0.3,0,0.6,0.1,1,0.2c0.3,0.1,0.6,0.3,0.8,0.5c0.2,0.2,0.4,0.5,0.5,0.8c0.1,0.3,0.2,0.6,0.2,1
	c0,0.3-0.1,0.7-0.2,1c-0.1,0.3-0.3,0.6-0.5,0.8c-0.2,0.2-0.5,0.4-0.8,0.5c-0.3,0.1-0.6,0.2-1,0.2s-0.7-0.1-1-0.2
	c-0.3-0.1-0.6-0.3-0.8-0.5c-0.2-0.2-0.4-0.5-0.5-0.8c-0.1-0.3-0.2-0.6-0.2-1c0-0.3,0.1-0.7,0.2-1c0.1-0.3,0.3-0.6,0.5-0.8
	c0.2-0.2,0.5-0.4,0.8-0.5C33.8,74.3,34.1,74.3,34.5,74.3z M34.5,78.8c0.3,0,0.5,0,0.8-0.2c0.2-0.1,0.5-0.3,0.6-0.4
	c0.2-0.2,0.3-0.4,0.4-0.6c0.1-0.2,0.2-0.5,0.2-0.8c0-0.3,0-0.5-0.2-0.8c-0.1-0.2-0.3-0.5-0.4-0.6c-0.2-0.2-0.4-0.3-0.6-0.4
	c-0.2-0.1-0.5-0.2-0.8-0.2s-0.5,0-0.8,0.2c-0.2,0.1-0.5,0.3-0.6,0.4c-0.2,0.2-0.3,0.4-0.4,0.6c-0.1,0.2-0.2,0.5-0.2,0.8
	c0,0.3,0,0.5,0.2,0.8c0.1,0.2,0.3,0.5,0.4,0.6c0.2,0.2,0.4,0.3,0.6,0.4C33.9,78.7,34.2,78.8,34.5,78.8z"/>
<path class="st0" d="M40.1,74.3c0.3,0,0.6,0.1,1,0.2c0.3,0.1,0.6,0.3,0.8,0.5c0.2,0.2,0.4,0.5,0.5,0.8c0.1,0.3,0.2,0.6,0.2,1v2.5H42
	v-2.5c0-0.3,0-0.5-0.2-0.8c-0.1-0.2-0.3-0.5-0.4-0.6c-0.2-0.2-0.4-0.3-0.6-0.4c-0.2-0.1-0.5-0.2-0.8-0.2s-0.5,0-0.8,0.2
	c-0.2,0.1-0.5,0.3-0.6,0.4c-0.2,0.2-0.3,0.4-0.4,0.6c-0.1,0.2-0.2,0.5-0.2,0.8v2.5h-0.5v-2.5c0-0.3,0.1-0.6,0.2-1
	c0.1-0.3,0.3-0.6,0.5-0.8c0.2-0.2,0.5-0.4,0.8-0.5C39.4,74.3,39.7,74.3,40.1,74.3z"/>
<path class="st0" d="M43.9,75c-0.2,0.2-0.3,0.3-0.3,0.6s0.1,0.5,0.3,0.6c0.2,0.2,0.4,0.3,0.6,0.3h1.1h1.1c0.2,0,0.3,0,0.5,0.1
	c0.2,0.1,0.3,0.2,0.4,0.3c0.1,0.1,0.2,0.3,0.3,0.4c0.1,0.2,0.1,0.3,0.1,0.5c0,0.2,0,0.4-0.1,0.5s-0.2,0.3-0.3,0.5
	c-0.1,0.1-0.3,0.2-0.4,0.3c-0.2,0.1-0.3,0.1-0.5,0.1h-3.7v-0.5h3.7c0.2,0,0.4-0.1,0.6-0.3c0.2-0.2,0.3-0.4,0.3-0.6
	c0-0.3-0.1-0.5-0.3-0.6C47.3,77.1,47,77,46.8,77h-1.1h-1.1c-0.2,0-0.4,0-0.6-0.1c-0.2-0.1-0.3-0.2-0.5-0.3c-0.1-0.1-0.2-0.3-0.3-0.5
	c-0.1-0.2-0.1-0.3-0.1-0.5s0-0.3,0.1-0.5c0.1-0.2,0.2-0.3,0.3-0.4c0.1-0.1,0.3-0.2,0.5-0.3c0.2-0.1,0.3-0.1,0.6-0.1h3.6v0.5h-3.6
	C44.3,74.8,44.1,74.8,43.9,75z"/>
<path class="st0" d="M51.2,79.2c-0.3,0-0.7-0.1-1-0.2c-0.3-0.1-0.6-0.3-0.8-0.5c-0.2-0.2-0.4-0.5-0.5-0.8c-0.1-0.3-0.2-0.6-0.2-1
	v-2.5h0.5v2.5c0,0.3,0,0.5,0.2,0.8c0.1,0.2,0.3,0.5,0.4,0.6c0.2,0.2,0.4,0.3,0.6,0.4c0.2,0.1,0.5,0.2,0.8,0.2s0.5,0,0.8-0.2
	c0.2-0.1,0.5-0.3,0.6-0.4c0.2-0.2,0.3-0.4,0.4-0.6c0.1-0.2,0.2-0.5,0.2-0.8v-2.5h0.5v2.5c0,0.3-0.1,0.7-0.2,1
	c-0.1,0.3-0.3,0.6-0.5,0.8c-0.2,0.2-0.5,0.4-0.8,0.5C51.9,79.2,51.6,79.2,51.2,79.2z"/>
<path class="st0" d="M54.3,79.2v-5.9h0.5v5.9H54.3z"/>
<path class="st0" d="M60.4,76.7c0,0.3-0.1,0.7-0.2,1c-0.1,0.3-0.3,0.6-0.5,0.8c-0.2,0.2-0.5,0.4-0.8,0.5c-0.3,0.1-0.6,0.2-1,0.2
	s-0.7-0.1-1-0.2c-0.3-0.1-0.6-0.3-0.8-0.5c-0.2-0.2-0.4-0.5-0.5-0.8c-0.1-0.3-0.2-0.6-0.2-1v-3.2h0.5v1.8h1.3v0.5h-1.3v1
	c0,0.3,0,0.5,0.2,0.8c0.1,0.2,0.3,0.5,0.4,0.6c0.2,0.2,0.4,0.3,0.6,0.4c0.2,0.1,0.5,0.2,0.8,0.2c0.3,0,0.5,0,0.8-0.2
	c0.2-0.1,0.5-0.3,0.6-0.4c0.2-0.2,0.3-0.4,0.4-0.6c0.1-0.2,0.2-0.5,0.2-0.8H60.4z"/>
<path class="st0" d="M61,73.9v-0.5h0.5v0.5H61z M61,79.2v-5h0.5v5H61z"/>
<path class="st0" d="M64.6,74.3c0.3,0,0.6,0.1,1,0.2c0.3,0.1,0.6,0.3,0.8,0.5c0.2,0.2,0.4,0.5,0.5,0.8c0.1,0.3,0.2,0.6,0.2,1v2.5
	h-0.5v-2.5c0-0.3,0-0.5-0.2-0.8c-0.1-0.2-0.3-0.5-0.4-0.6c-0.2-0.2-0.4-0.3-0.6-0.4c-0.2-0.1-0.5-0.2-0.8-0.2c-0.3,0-0.5,0-0.8,0.2
	c-0.2,0.1-0.5,0.3-0.6,0.4c-0.2,0.2-0.3,0.4-0.4,0.6c-0.1,0.2-0.2,0.5-0.2,0.8v2.5h-0.5v-2.5c0-0.3,0.1-0.6,0.2-1
	c0.1-0.3,0.3-0.6,0.5-0.8c0.2-0.2,0.5-0.4,0.8-0.5C63.9,74.3,64.2,74.3,64.6,74.3z"/>
<path class="st0" d="M72.6,76.8v2.4c0,0.3-0.1,0.6-0.2,1c-0.1,0.3-0.3,0.6-0.5,0.8c-0.2,0.2-0.5,0.4-0.8,0.5c-0.3,0.1-0.6,0.2-1,0.2
	s-0.6-0.1-1-0.2c-0.3-0.1-0.6-0.3-0.8-0.5s-0.4-0.5-0.5-0.8c-0.1-0.3-0.2-0.6-0.2-1h0.5c0,0.3,0,0.5,0.2,0.8
	c0.1,0.2,0.3,0.5,0.4,0.6c0.2,0.2,0.4,0.3,0.6,0.4c0.2,0.1,0.5,0.2,0.8,0.2c0.3,0,0.5,0,0.8-0.2c0.2-0.1,0.5-0.3,0.6-0.4
	c0.2-0.2,0.3-0.4,0.4-0.6c0.1-0.2,0.2-0.5,0.2-0.8v-1c-0.2,0.3-0.5,0.5-0.8,0.7c-0.3,0.2-0.7,0.3-1.1,0.3c-0.3,0-0.6-0.1-1-0.2
	c-0.3-0.1-0.6-0.3-0.8-0.5c-0.2-0.2-0.4-0.5-0.5-0.8c-0.1-0.3-0.2-0.6-0.2-1c0-0.3,0.1-0.7,0.2-1c0.1-0.3,0.3-0.6,0.5-0.8
	c0.2-0.2,0.5-0.4,0.8-0.5c0.3-0.1,0.6-0.2,1-0.2c0.3,0,0.7,0.1,1,0.2c0.3,0.1,0.6,0.3,0.8,0.5s0.4,0.5,0.5,0.8
	C72.6,76.1,72.7,76.4,72.6,76.8L72.6,76.8L72.6,76.8z M70.2,78.8c0.3,0,0.5,0,0.8-0.2c0.2-0.1,0.5-0.3,0.6-0.4
	c0.2-0.2,0.3-0.4,0.4-0.6c0.1-0.2,0.2-0.5,0.2-0.8c0-0.3,0-0.5-0.2-0.8c-0.1-0.2-0.2-0.5-0.4-0.6c-0.2-0.2-0.4-0.3-0.6-0.4
	c-0.2-0.1-0.5-0.2-0.8-0.2c-0.3,0-0.5,0-0.8,0.2c-0.2,0.1-0.5,0.3-0.6,0.4c-0.2,0.2-0.3,0.4-0.4,0.6c-0.1,0.2-0.2,0.5-0.2,0.8
	c0,0.3,0,0.5,0.2,0.8c0.1,0.2,0.3,0.5,0.4,0.6c0.2,0.2,0.4,0.3,0.6,0.4C69.6,78.7,69.9,78.8,70.2,78.8z"/>
<path class="st1" d="M10.5,61.8v6.9H7.7V49.1H14c0.9,0,1.8,0.1,2.6,0.2c0.8,0.2,1.6,0.4,2.2,0.9c0.6,0.5,1.1,1.1,1.5,1.9
	c0.4,0.8,0.6,1.9,0.6,3.2c0,1.3-0.2,2.3-0.6,3.2c-0.4,0.8-0.9,1.5-1.5,2.1c-0.6,0.5-1.3,0.9-2,1.1s-1.4,0.3-2.1,0.3H10.5z
	 M10.5,51.4v8.1h3.8c1.4,0,2.4-0.4,2.9-1.1c0.6-0.7,0.9-1.8,0.9-3.1c0-0.7-0.1-1.3-0.2-1.8c-0.2-0.5-0.4-0.9-0.8-1.2
	c-0.3-0.3-0.8-0.5-1.4-0.6c-0.6-0.2-1.3-0.2-2.2-0.2H10.5z"/>
<path class="st1" d="M34.4,67L34,69h-0.2c-0.6,0-1,0-1.4-0.1c-0.4-0.1-0.7-0.2-1-0.3c-0.3-0.2-0.5-0.4-0.6-0.6
	c-0.2-0.3-0.3-0.6-0.5-1c-1.2,1.3-2.5,2-4.2,2c-1.3,0-2.3-0.4-3.1-1.1c-0.8-0.7-1.1-1.7-1.1-2.9c0-1,0.3-1.8,0.8-2.4
	c0.5-0.6,1.2-1.1,2-1.5c0.8-0.4,1.7-0.6,2.7-0.8c1-0.2,1.9-0.3,2.9-0.3c0-1.2-0.2-2.1-0.7-2.5c-0.5-0.5-1.3-0.6-2.3-0.6
	c-1.2,0-2.4,0.4-3.6,1.2l-0.4-2.1c1.2-1,2.8-1.4,4.7-1.4c0.9,0,1.6,0.1,2.2,0.3c0.6,0.2,1.1,0.6,1.5,1.1c0.4,0.5,0.6,1.2,0.8,2.1
	c0.2,0.8,0.3,1.9,0.3,3.1v2.8c0,1.1,0.1,1.8,0.3,2.2c0.2,0.4,0.6,0.6,1.3,0.6L34.4,67L34.4,67z M30,65.1v-3.3
	c-2,0.1-3.5,0.3-4.3,0.8c-0.9,0.5-1.3,1.2-1.3,2.2c0,1.4,0.7,2.1,2.1,2.1c0.7,0,1.3-0.2,1.9-0.5C29.1,66.1,29.6,65.7,30,65.1z"/>
<path class="st1" d="M61.4,61.8h-10c0.3,3.3,2,4.9,5.2,4.9c1.4,0,2.7-0.3,4-0.8l0.3,2c-1.6,0.7-3.2,1.1-4.6,1.1
	c-1.2,0-2.2-0.2-3.1-0.6c-0.9-0.4-1.7-0.9-2.4-1.5c-0.6-0.6-1.1-1.4-1.4-2.3c-0.3-0.9-0.5-1.9-0.5-2.9c0-1,0.2-1.9,0.5-2.8
	c0.3-0.9,0.8-1.6,1.3-2.2c0.6-0.6,1.3-1.1,2.1-1.5c0.8-0.4,1.8-0.5,2.8-0.5c0.9,0,1.7,0.1,2.4,0.4c0.7,0.3,1.4,0.6,1.9,1.1
	c0.5,0.5,0.9,1.1,1.2,1.8c0.3,0.7,0.4,1.5,0.4,2.4C61.6,61,61.5,61.5,61.4,61.8z M55.6,56.9c-2.1,0-3.3,1.1-3.9,3.2h7.2
	c0-1-0.3-1.8-0.8-2.4C57.5,57.2,56.7,56.9,55.6,56.9z"/>
<path class="st1" d="M75.1,67c-1.2,1.3-2.9,2-5,2c-1.1,0-2-0.2-2.9-0.5c-0.8-0.4-1.6-0.9-2.1-1.5c-0.6-0.6-1-1.4-1.3-2.3
	c-0.3-0.9-0.5-1.8-0.5-2.9c0-1,0.2-2,0.5-2.9c0.3-0.9,0.8-1.6,1.4-2.2c0.6-0.6,1.3-1.1,2.1-1.5c0.8-0.4,1.8-0.5,2.9-0.5
	c1.1,0,2,0.2,2.9,0.5c0.8,0.4,1.6,0.9,2.1,1.5c0.6,0.6,1,1.4,1.4,2.3c0.3,0.9,0.5,1.8,0.5,2.8C76.9,63.9,76.3,65.6,75.1,67z
	 M73.2,58.2c-0.7-0.9-1.8-1.3-3.1-1.3c-1.3,0-2.4,0.4-3.1,1.3c-0.7,0.8-1.1,2.1-1.1,3.7c0,1.6,0.4,2.8,1.1,3.7
	c0.7,0.8,1.8,1.3,3.1,1.3c1.4,0,2.4-0.5,3.2-1.3c0.7-0.9,1.1-2.1,1.1-3.6C74.3,60.3,74,59.1,73.2,58.2z"/>
<path class="st1" d="M92,68.7h-2.5v-7.6c0-1.5-0.3-2.6-0.8-3.2c-0.6-0.6-1.5-1-2.8-1c-1.8,0-3.1,0.6-3.8,1.8v10h-2.5V54.9h2l0.3,1.4
	c1.3-1.2,2.8-1.8,4.6-1.8c3.7,0,5.6,2.2,5.6,6.5L92,68.7L92,68.7z"/>
<path class="st2" d="M39.6,48.9h-3.1v20h3.1V48.9z"/>
<path class="st2" d="M46.3,48.9h-3.1v20h3.1V48.9z"/>
<path class="st2" d="M52.2,44.3H7.5v-1.7h45.7L52.2,44.3z"/>
<path class="st3" d="M12.8,0L7.5,11l8.4-11H12.8z"/>
<path class="st4" d="M16.6,31.2l4.8-2.1l0.7-0.8l-7.2,0L16.6,31.2z"/>
<path class="st5" d="M15.9,0L7.5,11l14.9-3.4L15.9,0z"/>
<path class="st5" d="M11.5,27.6l-0.6,1.8l4-1L11.5,27.6z"/>
<path class="st3" d="M10.9,29.4l5.7,1.8l-1.7-2.9L10.9,29.4z"/>
<path class="st4" d="M47.8,10.5L31.1,2.4l0.1,12.5L47.8,10.5z"/>
<path class="st3" d="M31.1,2.4l16.7,8.1l4.4-8.1H31.1z"/>
<path class="st4" d="M52.2,2.4l-4.4,8.1l20.3,3.5L52.2,2.4z"/>
<path class="st5" d="M29.4,12.1l1.8,2.8L31.1,2.4l-8.8,5.3l8.9,7.3L29.4,12.1z"/>
<path class="st6" d="M56.9,47.5l-4.5,0.6l8.2,6.3l3-3.7L56.9,47.5z"/>
<path class="st3" d="M15.3,33.1v1.8l6-0.2l-2.6-2.1L15.3,33.1z"/>
<path class="st7" d="M60.3,42.7l-3.1-3l-4.7,8.5l4.5-0.6L60.3,42.7z"/>
<path class="st4" d="M35.7,32.1l-3.3,0.5v1.9l5.9-0.3l0.3-4.8L35.7,32.1z"/>
<path class="st4" d="M52.2,25.9l17.9,14.8L70,47.1l-6.4,3.6l-3,3.7l11.5-4.8l1.3-19.5L52.2,25.9z"/>
<path class="st6" d="M61.9,47.3l3,0.2l3.8-3.6l-3.4,0.5L61.9,47.3z"/>
<path class="st8" d="M65.3,44.3l3.4-0.5l-3-5.1l-8.5,0.8l3.1,3L65.3,44.3z"/>
<path class="st4" d="M38.6,29.4l7.1,0.9l-0.1-3.5l-6.5,0.8L38.6,29.4z"/>
<path class="st5" d="M26.9,24.5l-0.5,3.4l5.7,0.6l-1-13.5L26.9,24.5z"/>
<path class="st4" d="M32.2,28.4l7-0.9l-8-12.6L32.2,28.4z"/>
<path class="st4" d="M25.8,26.6l1.1-2.1L22,28.4l-0.5,1.5l4.9-2.1l0.5-3.4L25.8,26.6z"/>
<path class="st3" d="M22.3,7.7l-7.8,11.4l16.6-4.2L22.3,7.7z"/>
<path class="st5" d="M18.1,27l-3.2,1.4l7.2,0l4.9-3.9L18.1,27z"/>
<path class="st3" d="M52.2,25.9l21.2,4.2L47.8,10.5L52.2,25.9z"/>
<path class="st5" d="M68.1,13.9l-20.3-3.5l25.6,19.6L68.1,13.9z"/>
<path class="st3" d="M31.2,14.9l3.8-0.5L31.2,14.9l8,12.6l8.6-17.1L31.2,14.9z"/>
<path class="st4" d="M39.2,27.6l6.5-0.8l6.5-0.8l-4.4-15.5L39.2,27.6z"/>
<path class="st4" d="M18.7,32.6l2.6,2.1l3.8-3.6l1.4-3.3l-4.9,2.1L18.7,32.6z"/>
<path class="st4" d="M5.3,17.8l3.3-1L4,17.4l4.7-0.6L0,16.9v4.2l8.6-4.3L5.3,17.8z"/>
<path class="st5" d="M6.8,15.3l1.8,1.4L7.5,11L0,16.9l8.6-0.1L6.8,15.3z"/>
<path class="st4" d="M22.3,7.7L7.5,11l1.2,5.8L22.3,7.7z"/>
<path class="st4" d="M0,21.1l9.8,5l-1.1-9.3L0,21.1z"/>
<path class="st3" d="M31.2,14.9L18.1,27l8.8-2.5L31.2,14.9z"/>
<path class="st4" d="M14.6,19.1l3.5,7.9l13.1-12.1L14.6,19.1z"/>
<path class="st5" d="M14.6,19.1l-1.2-2.4L14.6,19.1l7.8-11.4L8.6,16.8l1.1,9.3L14.6,19.1z"/>
<path class="st3" d="M9.8,26.1l8.3,0.9l-3.5-7.9L9.8,26.1z"/>
<path class="st3" d="M38.6,29.4l-0.3,4.8l3.8-3.6v0v0.1l-1.4,3.7l3.2,0.8l1.9-4.8L38.6,29.4z"/>
<path class="st4" d="M37.8,36.2l0.8,1.7l5.3-2.8l-3.2-0.8L37.8,36.2z"/>
</svg>
