<svg width="134" height="118" viewBox="0 0 134 118" fill="none" xmlns="http://www.w3.org/2000/svg">
<path d="M41.8063 113.711C42.1359 113.711 42.4655 113.656 42.7951 113.546C43.0698 113.436 43.3445 113.271 43.6192 113.106C43.8389 112.941 44.0587 112.666 44.2784 112.446C44.4432 112.171 44.608 111.897 44.6629 111.567H45.3771C45.2672 112.006 45.1574 112.336 44.9376 112.721C44.7179 113.051 44.4432 113.381 44.1685 113.656C43.8389 113.931 43.5093 114.096 43.1247 114.261C42.7402 114.426 42.3007 114.481 41.9162 114.481C41.4217 114.481 40.9273 114.371 40.4878 114.206C40.0483 114.041 39.6638 113.766 39.3342 113.436C39.0045 113.106 38.7848 112.721 38.5651 112.281C38.4002 111.842 38.2904 111.347 38.2904 110.852C38.2904 110.357 38.4002 109.862 38.5651 109.422C38.7299 108.982 39.0045 108.597 39.3342 108.267C39.6638 107.938 40.0483 107.718 40.4878 107.498C40.9273 107.333 41.4217 107.223 41.9162 107.223C42.3556 107.223 42.7402 107.278 43.1247 107.443C43.5093 107.608 43.8389 107.773 44.1685 108.048C44.4981 108.322 44.7179 108.597 44.9376 108.982C45.1574 109.312 45.3222 109.697 45.3771 110.137H44.6629C44.5531 109.807 44.4432 109.532 44.2784 109.257C44.1136 108.982 43.8938 108.762 43.6192 108.597C43.3994 108.432 43.1247 108.267 42.7951 108.157C42.5204 108.048 42.1908 107.993 41.8063 107.993C41.4217 107.993 41.0372 108.048 40.7076 108.212C40.3779 108.377 40.0483 108.597 39.7736 108.817C39.499 109.092 39.3342 109.367 39.1694 109.752C39.0045 110.082 38.9496 110.467 38.9496 110.852C38.9496 111.237 39.0045 111.622 39.1694 111.952C39.3342 112.281 39.5539 112.611 39.7736 112.886C40.0483 113.161 40.323 113.326 40.7076 113.491C41.0372 113.601 41.4217 113.711 41.8063 113.711Z" fill="#4C4C4C"/>
<path d="M49.772 107.223C50.2664 107.223 50.7059 107.333 51.1454 107.498C51.5849 107.663 51.9694 107.938 52.299 108.267C52.6287 108.597 52.9033 108.982 53.0681 109.422C53.233 109.862 53.3428 110.357 53.3428 110.852C53.3428 111.347 53.233 111.842 53.0681 112.281C52.9033 112.721 52.6287 113.106 52.299 113.436C51.9694 113.766 51.5849 113.986 51.1454 114.206C50.7059 114.371 50.2664 114.481 49.772 114.481C49.2776 114.481 48.7831 114.371 48.3436 114.206C47.9042 114.041 47.5196 113.766 47.19 113.436C46.8604 113.106 46.6406 112.721 46.4209 112.281C46.2561 111.842 46.1462 111.347 46.1462 110.852C46.1462 110.357 46.2561 109.862 46.4209 109.422C46.5857 108.982 46.8604 108.597 47.19 108.267C47.5196 107.938 47.9042 107.718 48.3436 107.498C48.7831 107.333 49.2776 107.223 49.772 107.223ZM49.772 113.711C50.1565 113.711 50.5411 113.656 50.8707 113.491C51.2003 113.326 51.5299 113.106 51.8046 112.886C52.0793 112.611 52.2441 112.336 52.4089 111.952C52.5737 111.622 52.6287 111.237 52.6287 110.852C52.6287 110.467 52.5737 110.082 52.4089 109.752C52.2441 109.422 52.0244 109.092 51.8046 108.817C51.5299 108.542 51.2553 108.377 50.8707 108.212C50.5411 108.048 50.1565 107.993 49.772 107.993C49.3874 107.993 49.0029 108.048 48.6733 108.212C48.3436 108.377 48.014 108.597 47.7394 108.817C47.4647 109.092 47.2999 109.367 47.1351 109.752C46.9703 110.082 46.9153 110.467 46.9153 110.852C46.9153 111.237 46.9703 111.622 47.1351 111.952C47.2999 112.281 47.5196 112.611 47.7394 112.886C48.014 113.161 48.2887 113.326 48.6733 113.491C49.0029 113.601 49.3874 113.711 49.772 113.711Z" fill="#4C4C4C"/>
<path d="M57.8476 107.223C58.342 107.223 58.7815 107.333 59.221 107.498C59.6605 107.663 60.045 107.938 60.3746 108.267C60.7042 108.597 60.9789 108.982 61.1437 109.422C61.3085 109.862 61.4184 110.302 61.4184 110.797V114.371H60.7042V110.797C60.7042 110.412 60.6493 110.027 60.4845 109.697C60.3197 109.367 60.0999 109.037 59.8802 108.762C59.6055 108.487 59.3308 108.322 58.9463 108.157C58.6167 107.993 58.2321 107.938 57.8476 107.938C57.463 107.938 57.0785 107.993 56.7489 108.157C56.4192 108.322 56.0896 108.542 55.8149 108.762C55.5403 109.037 55.3755 109.312 55.2106 109.697C55.0458 110.027 54.9909 110.412 54.9909 110.797V114.371H54.2767V110.797C54.2767 110.302 54.3866 109.862 54.5514 109.422C54.7162 108.982 54.9909 108.597 55.3205 108.267C55.6501 107.938 56.0347 107.663 56.4742 107.498C56.8587 107.333 57.3531 107.223 57.8476 107.223Z" fill="#4C4C4C"/>
<path d="M63.3961 108.267C63.1214 108.487 63.0116 108.762 63.0116 109.147C63.0116 109.532 63.1214 109.807 63.3961 110.082C63.6708 110.357 63.9455 110.467 64.33 110.467H65.9232H67.5713C67.8459 110.467 68.0657 110.522 68.3404 110.632C68.5601 110.742 68.7798 110.852 68.9447 111.072C69.1095 111.237 69.2743 111.457 69.3841 111.677C69.494 111.897 69.5489 112.171 69.5489 112.446C69.5489 112.721 69.494 112.996 69.3841 113.216C69.2743 113.436 69.1644 113.656 68.9447 113.876C68.7798 114.041 68.5601 114.206 68.3404 114.316C68.1206 114.426 67.8459 114.481 67.5713 114.481H62.2974V113.766H67.5713C67.9009 113.766 68.1755 113.656 68.4502 113.381C68.67 113.106 68.8348 112.831 68.8348 112.446C68.8348 112.061 68.7249 111.787 68.4502 111.567C68.2305 111.347 67.9009 111.237 67.5713 111.237H65.9232H64.33C64.0553 111.237 63.7807 111.182 63.506 111.072C63.2862 110.962 63.0665 110.797 62.8468 110.632C62.6819 110.467 62.5171 110.247 62.4073 109.972C62.2974 109.752 62.2425 109.477 62.2425 109.202C62.2425 108.927 62.2974 108.707 62.4073 108.432C62.5171 108.212 62.627 107.993 62.8468 107.828C63.0116 107.663 63.2313 107.498 63.506 107.388C63.7257 107.278 64.0004 107.223 64.33 107.223H69.494V107.938H64.33C63.9455 107.938 63.6159 108.048 63.3961 108.267Z" fill="#4C4C4C"/>
<path d="M73.9438 114.426C73.4494 114.426 72.955 114.316 72.5155 114.151C72.076 113.986 71.6914 113.711 71.3618 113.381C71.0322 113.051 70.8125 112.666 70.5927 112.226C70.4279 111.787 70.3181 111.292 70.3181 110.797V107.223H71.0322V110.797C71.0322 111.182 71.0872 111.567 71.252 111.897C71.4168 112.226 71.6365 112.556 71.8563 112.831C72.1309 113.106 72.4056 113.271 72.7902 113.436C73.1198 113.601 73.5043 113.656 73.8889 113.656C74.2734 113.656 74.658 113.601 74.9876 113.436C75.3172 113.271 75.6468 113.051 75.9215 112.831C76.1962 112.556 76.361 112.281 76.5258 111.897C76.6906 111.567 76.7456 111.182 76.7456 110.797V107.223H77.4597V110.797C77.4597 111.292 77.3499 111.787 77.185 112.226C77.0202 112.666 76.7456 113.051 76.4159 113.381C76.0863 113.711 75.7018 113.931 75.2623 114.151C74.8777 114.316 74.4383 114.426 73.9438 114.426Z" fill="#4C4C4C"/>
<path d="M78.3936 114.426V105.958H79.1078V114.426H78.3936Z" fill="#4C4C4C"/>
<path d="M87.1834 110.797C87.1834 111.292 87.0735 111.787 86.9087 112.226C86.7439 112.666 86.4692 113.051 86.1396 113.381C85.81 113.711 85.4254 113.931 84.986 114.151C84.5465 114.316 84.107 114.426 83.6126 114.426C83.1181 114.426 82.6237 114.316 82.1842 114.151C81.7447 113.986 81.3602 113.711 81.0306 113.381C80.701 113.051 80.4812 112.666 80.2615 112.226C80.0967 111.787 79.9868 111.292 79.9868 110.797V106.123H80.7009V108.652H82.6237V109.367H80.7009V110.797C80.7009 111.182 80.7559 111.567 80.9207 111.897C81.0855 112.226 81.3052 112.556 81.525 112.831C81.7997 113.106 82.0744 113.271 82.4589 113.436C82.7885 113.601 83.1731 113.656 83.5576 113.656C83.9422 113.656 84.3267 113.601 84.6563 113.436C84.986 113.271 85.3156 113.051 85.5903 112.831C85.8649 112.556 86.0297 112.281 86.1946 111.897C86.3594 111.567 86.4143 111.182 86.4143 110.797H87.1834Z" fill="#4C4C4C"/>
<path d="M88.0624 106.673V105.958H88.7766V106.673H88.0624ZM88.0624 114.426V107.223H88.7766V114.426H88.0624Z" fill="#4C4C4C"/>
<path d="M93.2264 107.223C93.7208 107.223 94.1603 107.333 94.5998 107.498C95.0392 107.663 95.4238 107.938 95.7534 108.267C96.083 108.597 96.3577 108.982 96.5225 109.422C96.6873 109.862 96.7972 110.302 96.7972 110.797V114.371H96.083V110.797C96.083 110.412 96.0281 110.027 95.8633 109.697C95.6985 109.367 95.4787 109.037 95.259 108.762C94.9843 108.487 94.7096 108.322 94.3251 108.157C93.9955 107.993 93.6109 107.938 93.2264 107.938C92.8418 107.938 92.4573 107.993 92.1276 108.157C91.798 108.322 91.4684 108.542 91.1937 108.762C90.919 109.037 90.7542 109.312 90.5894 109.697C90.4246 110.027 90.3697 110.412 90.3697 110.797V114.371H89.6555V110.797C89.6555 110.302 89.7654 109.862 89.9302 109.422C90.095 108.982 90.3697 108.597 90.6993 108.267C91.0289 107.938 91.4135 107.663 91.853 107.498C92.2375 107.333 92.7319 107.223 93.2264 107.223Z" fill="#4C4C4C"/>
<path d="M104.873 110.907V114.426C104.873 114.921 104.763 115.361 104.598 115.801C104.433 116.24 104.159 116.625 103.829 116.955C103.499 117.285 103.115 117.56 102.675 117.725C102.236 117.89 101.741 118 101.247 118C100.753 118 100.313 117.89 99.8736 117.725C99.4341 117.56 99.0495 117.285 98.7199 116.955C98.3903 116.625 98.1156 116.24 97.9508 115.801C97.786 115.361 97.6761 114.921 97.6761 114.426H98.3903C98.3903 114.811 98.4452 115.196 98.6101 115.526C98.7749 115.856 98.9946 116.185 99.2144 116.46C99.489 116.735 99.7637 116.9 100.148 117.065C100.478 117.23 100.862 117.285 101.247 117.285C101.686 117.285 102.016 117.23 102.401 117.065C102.73 116.9 103.06 116.68 103.335 116.46C103.609 116.185 103.774 115.911 103.939 115.526C104.104 115.196 104.159 114.811 104.159 114.426V112.996C103.829 113.436 103.444 113.766 102.95 114.041C102.456 114.316 101.906 114.426 101.302 114.426C100.807 114.426 100.368 114.316 99.9285 114.151C99.489 113.986 99.1045 113.711 98.7749 113.381C98.4453 113.051 98.1706 112.666 98.0058 112.226C97.841 111.787 97.7311 111.292 97.7311 110.797C97.7311 110.302 97.841 109.807 98.0058 109.367C98.1706 108.927 98.4453 108.542 98.7749 108.212C99.1045 107.883 99.489 107.663 99.9285 107.443C100.368 107.278 100.807 107.168 101.302 107.168C101.796 107.168 102.291 107.278 102.73 107.443C103.17 107.608 103.554 107.883 103.884 108.212C104.214 108.542 104.433 108.927 104.653 109.367C104.818 109.807 104.928 110.302 104.928 110.797V110.907H104.873ZM101.302 113.711C101.741 113.711 102.071 113.656 102.456 113.491C102.785 113.326 103.115 113.106 103.389 112.886C103.664 112.611 103.829 112.336 103.994 111.952C104.159 111.622 104.214 111.237 104.214 110.852C104.214 110.467 104.159 110.082 103.994 109.752C103.829 109.422 103.664 109.092 103.389 108.817C103.115 108.542 102.84 108.377 102.456 108.212C102.126 108.048 101.741 107.993 101.302 107.993C100.917 107.993 100.533 108.048 100.203 108.212C99.8736 108.377 99.544 108.597 99.2693 108.817C98.9946 109.092 98.8298 109.367 98.665 109.752C98.5002 110.082 98.4452 110.467 98.4452 110.852C98.4452 111.237 98.5002 111.622 98.665 111.952C98.8298 112.281 99.0495 112.611 99.2693 112.886C99.544 113.161 99.8186 113.326 100.203 113.491C100.533 113.601 100.862 113.711 101.302 113.711Z" fill="#4C4C4C"/>
<path d="M15.1623 89.2973V99.2498H11.0971V70.822H20.1615C21.48 70.822 22.7435 70.932 23.9521 71.1519C25.1607 71.3719 26.2045 71.7568 27.0834 72.4166C27.9624 73.0764 28.7315 73.9562 29.2259 75.1109C29.7753 76.2656 30.05 77.8052 30.05 79.6748C30.05 81.4893 29.7753 83.0289 29.2259 84.2936C28.6766 85.5033 27.9624 86.493 27.0834 87.2628C26.2045 88.0326 25.2706 88.5275 24.2268 88.8574C23.183 89.1873 22.1941 89.2973 21.2602 89.2973H15.1623ZM15.1623 74.2312V85.8882H20.601C22.5787 85.8882 24.007 85.3383 24.8311 84.2936C25.6551 83.2489 26.0946 81.7642 26.0946 79.8397C26.0946 78.85 25.9847 77.9702 25.765 77.2554C25.5452 76.5406 25.1607 75.9357 24.6663 75.4958C24.1718 75.0559 23.4577 74.726 22.6336 74.5611C21.8096 74.3411 20.7109 74.2312 19.5023 74.2312H15.1623Z" fill="#0E685F" stroke="#0E685F" stroke-width="0.7795" stroke-miterlimit="10"/>
<path d="M49.6621 96.7204L49.1128 99.6346H48.8381C48.0141 99.6346 47.3548 99.5796 46.8055 99.4697C46.2561 99.3597 45.8166 99.1947 45.4321 98.9748C45.0475 98.7549 44.7179 98.4249 44.4982 98.04C44.2235 97.6551 44.0037 97.2153 43.729 96.6654C42.026 98.5899 40.0483 99.5797 37.6312 99.5797C35.7633 99.5797 34.2801 99.0298 33.1813 97.9851C32.0826 96.9403 31.5333 95.5107 31.5333 93.8061C31.5333 92.4315 31.9178 91.2768 32.632 90.397C33.4011 89.5172 34.335 88.8024 35.4887 88.2525C36.6423 87.7027 37.9058 87.3178 39.3342 87.0978C40.7625 86.8779 42.081 86.7129 43.4544 86.7129C43.4544 84.9534 43.1248 83.7437 42.4106 83.0838C41.6964 82.424 40.5977 82.1491 39.1144 82.1491C37.4114 82.1491 35.6535 82.7539 33.8955 83.9086L33.3462 80.9394C35.1041 79.5647 37.3565 78.8499 40.1033 78.8499C41.3668 78.8499 42.4655 79.0149 43.3445 79.3448C44.2235 79.6747 44.9376 80.2246 45.487 80.9944C46.0364 81.7642 46.4209 82.6989 46.6956 83.9636C46.9703 85.1733 47.0801 86.6579 47.0801 88.4175V92.4865C47.0801 94.081 47.19 95.1258 47.4647 95.7306C47.7394 96.3355 48.3437 96.6654 49.3325 96.6654H49.6621V96.7204ZM43.3445 94.0261V89.2973C40.4329 89.4072 38.3453 89.7921 37.0818 90.452C35.8183 91.1118 35.214 92.2115 35.214 93.6961C35.214 95.7306 36.2578 96.7204 38.2904 96.7204C39.2792 96.7204 40.2131 96.5004 41.0921 96.0056C42.026 95.5107 42.7402 94.8509 43.3445 94.0261Z" fill="#0E685F" stroke="#0E685F" stroke-width="0.7795" stroke-miterlimit="10"/>
<path d="M88.7216 89.2973H74.3284C74.7679 94.0261 77.24 96.3905 81.7997 96.3905C83.8323 96.3905 85.7551 96.0056 87.513 95.2357L88.0074 98.095C85.6452 99.1398 83.4478 99.6346 81.3602 99.6346C79.6572 99.6346 78.1739 99.3597 76.8554 98.8098C75.537 98.26 74.3833 97.5452 73.4494 96.6104C72.5155 95.6756 71.8013 94.5759 71.3618 93.2563C70.8674 91.9916 70.6477 90.5619 70.6477 89.0773C70.6477 87.6477 70.8674 86.328 71.3618 85.0633C71.8013 83.7987 72.4606 82.7539 73.2846 81.8192C74.1086 80.9394 75.1524 80.1696 76.361 79.6747C77.5696 79.1248 78.8881 78.9049 80.3713 78.9049C81.6349 78.9049 82.7885 79.0699 83.8323 79.4548C84.8761 79.8397 85.81 80.3895 86.5242 81.1043C87.2933 81.8192 87.8426 82.6989 88.2821 83.7437C88.7216 84.7884 88.8864 85.9431 88.8864 87.2628C88.8864 88.0876 88.8315 88.7474 88.7216 89.2973ZM80.2615 82.1491C77.2949 82.1491 75.4271 83.6887 74.658 86.7129H85.0958C85.0958 85.2283 84.7113 84.1286 83.8872 83.3038C83.0632 82.589 81.8546 82.1491 80.2615 82.1491Z" fill="#0E685F" stroke="#0E685F" stroke-width="0.7795" stroke-miterlimit="10"/>
<path d="M108.444 96.7204C106.686 98.6449 104.268 99.6347 101.247 99.6347C99.7088 99.6347 98.3354 99.3597 97.1268 98.8649C95.9182 98.315 94.8744 97.6002 94.0504 96.7204C93.2263 95.7856 92.5671 94.6859 92.1276 93.4212C91.6881 92.1566 91.4684 90.7819 91.4684 89.2973C91.4684 87.8127 91.6881 86.438 92.1826 85.1733C92.622 83.9086 93.2813 82.8089 94.1602 81.9292C94.9843 80.9944 96.0281 80.2796 97.2367 79.7847C98.4453 79.2348 99.8187 79.0149 101.357 79.0149C102.895 79.0149 104.214 79.2898 105.477 79.7847C106.686 80.3346 107.729 81.0494 108.553 81.9841C109.378 82.9189 110.037 84.0186 110.531 85.2833C110.971 86.548 111.245 87.9226 111.245 89.3523C111.081 92.2665 110.202 94.7409 108.444 96.7204ZM105.752 84.0186C104.708 82.7539 103.17 82.1491 101.247 82.1491C99.3242 82.1491 97.786 82.7539 96.7422 84.0186C95.6985 85.2283 95.1491 86.9879 95.1491 89.2973C95.1491 91.5517 95.6985 93.3113 96.7422 94.5759C97.786 95.7856 99.3242 96.4455 101.247 96.4455C103.225 96.4455 104.708 95.7856 105.807 94.5209C106.85 93.2563 107.4 91.4967 107.4 89.3523C107.345 87.0429 106.85 85.2833 105.752 84.0186Z" fill="#0E685F" stroke="#0E685F" stroke-width="0.7795" stroke-miterlimit="10"/>
<path d="M132.78 99.1947H129.154V88.2525C129.154 86.1081 128.77 84.5685 127.946 83.5787C127.122 82.644 125.803 82.1491 123.936 82.1491C121.299 82.1491 119.486 83.0289 118.497 84.7334V99.1947H114.871V79.2898H117.728L118.112 81.3793C119.98 79.6747 122.178 78.8499 124.705 78.8499C130.088 78.8499 132.835 81.9841 132.835 88.1975V99.1947H132.78Z" fill="#0E685F" stroke="#0E685F" stroke-width="0.7795" stroke-miterlimit="10"/>
<path d="M57.1334 70.6021H52.6836V99.4147H57.1334V70.6021Z" fill="#0E685F"/>
<path d="M66.8571 70.6021H62.4073V99.4147H66.8571V70.6021Z" fill="#0E685F"/>
<path d="M75.3722 64.0037H10.8773V61.5294H76.8005L75.3722 64.0037Z" fill="#0E685F"/>
<path d="M18.5134 0L10.7675 15.891L22.9083 0H18.5134Z" fill="#0B685F"/>
<path d="M23.8971 45.0886L30.7641 42.1193L31.8079 41.0196L21.4799 40.9646L23.8971 45.0886Z" fill="#54C2B9"/>
<path d="M22.9083 0L10.7675 15.891L32.2474 11.0522L22.9083 0Z" fill="#93D4CD"/>
<path d="M16.6456 39.9199L15.7117 42.4492L21.48 40.9646L16.6456 39.9199Z" fill="#93D4CD"/>
<path d="M15.7117 42.4492L23.8972 45.0886L21.48 40.9646L15.7117 42.4492Z" fill="#0B685F"/>
<path d="M68.9996 15.1211L44.8827 3.46411L45.0475 21.5545L68.9996 15.1211Z" fill="#54C2B9"/>
<path d="M44.8827 3.46411L68.9996 15.1211L75.3722 3.46411H44.8827Z" fill="#0B685F"/>
<path d="M75.3721 3.46411L68.9996 15.1211L98.2804 20.1249L75.3721 3.46411Z" fill="#54C2B9"/>
<path d="M42.4106 17.4855L45.0475 21.5545L44.8827 3.46411L32.2474 11.0522L45.0475 21.5545L42.4106 17.4855Z" fill="#93D4CD"/>
<path d="M82.1842 68.5126L75.7567 69.4473L87.6229 78.52L91.9079 73.1864L82.1842 68.5126Z" fill="#4C4C4C"/>
<path d="M22.0843 47.7829V50.4222L30.7092 50.0923L26.9736 47.0681L22.0843 47.7829Z" fill="#0B685F"/>
<path d="M87.0735 61.5844L82.5688 57.1855L75.7567 69.4474L82.1842 68.5126L87.0735 61.5844Z" fill="#9E9F9E"/>
<path d="M51.5849 46.2982L46.7505 47.013V49.7074L55.3205 49.3225L55.76 42.3942L51.5849 46.2982Z" fill="#54C2B9"/>
<path d="M75.3722 37.4455L101.192 58.7801L101.082 67.9627L91.9079 73.1864L87.6229 78.5201L104.159 71.5918L106.026 43.439L75.3722 37.4455Z" fill="#54C2B9"/>
<path d="M89.3808 68.2377L93.7757 68.5126L99.2144 63.2889L94.2701 64.0038L89.3808 68.2377Z" fill="#4C4C4C"/>
<path d="M94.2702 64.0037L99.2144 63.2889L94.8195 55.9758L82.5688 57.1855L87.0735 61.5843L94.2702 64.0037Z" fill="#D2D3D1"/>
<path d="M55.76 42.3942L66.033 43.6589L65.9232 38.6552L56.584 39.8099L55.76 42.3942Z" fill="#54C2B9"/>
<path d="M38.8397 35.356L38.1805 40.1948L46.4758 41.0745L45.0475 21.5545L38.8397 35.356Z" fill="#93D4CD"/>
<path d="M46.4758 41.0745L56.584 39.8099L45.0475 21.5545L46.4758 41.0745Z" fill="#54C2B9"/>
<path d="M37.2466 38.3802L38.8397 35.356L31.8079 41.0196L31.1487 43.164L38.1805 40.1948L38.8397 35.356L37.2466 38.3802Z" fill="#54C2B9"/>
<path d="M32.2474 11.0522L21.0405 27.548L45.0475 21.5545L32.2474 11.0522Z" fill="#0B685F"/>
<path d="M26.1495 38.9851L21.4799 40.9646L31.8079 41.0196L38.8397 35.356L26.1495 38.9851Z" fill="#93D4CD"/>
<path d="M75.3721 37.4455L106.026 43.439L68.9996 15.1212L75.3721 37.4455Z" fill="#0B685F"/>
<path d="M98.2804 20.1249L68.9996 15.1212L106.026 43.439L98.2804 20.1249Z" fill="#93D4CD"/>
<path d="M45.0475 21.5545L50.5411 20.8947L45.0475 21.5545L56.584 39.8099L68.9996 15.1212L45.0475 21.5545Z" fill="#0B685F"/>
<path d="M56.584 39.8099L65.9232 38.6552L75.3722 37.4455L68.9996 15.1212L56.584 39.8099Z" fill="#54C2B9"/>
<path d="M26.9736 47.068L30.7092 50.0922L36.1479 44.9236L38.1805 40.1948L31.1487 43.164L26.9736 47.068Z" fill="#54C2B9"/>
<path d="M7.6361 25.7335L12.4705 24.2488L5.71334 25.1286L12.4705 24.2488L0 24.4138V30.5172L12.4705 24.2488L7.6361 25.7335Z" fill="#54C2B9"/>
<path d="M9.88848 22.1593L12.4705 24.2488L10.7675 15.8909L0 24.4138L12.4705 24.2488L9.88848 22.1593Z" fill="#93D4CD"/>
<path d="M32.2474 11.0522L10.7675 15.891L12.4705 24.2488L32.2474 11.0522Z" fill="#54C2B9"/>
<path d="M0 30.5172L14.1185 37.7204L12.4705 24.2488L0 30.5172Z" fill="#54C2B9"/>
<path d="M45.0475 21.5545L26.1495 38.9851L38.8397 35.356L45.0475 21.5545Z" fill="#0B685F"/>
<path d="M21.0405 27.548L26.1495 38.9851L45.0475 21.5545L21.0405 27.548Z" fill="#54C2B9"/>
<path d="M21.0405 27.548L19.3375 24.1389L21.0405 27.548L32.2474 11.0522L12.4705 24.2488L14.1185 37.7204L21.0405 27.548Z" fill="#93D4CD"/>
<path d="M14.1186 37.7204L26.1495 38.9851L21.0405 27.548L14.1186 37.7204Z" fill="#0B685F"/>
<path d="M55.76 42.3942L55.3205 49.3225L60.7592 44.1538V44.0988V44.2088L58.6716 49.4874L63.3412 50.6421L66.033 43.6589L55.76 42.3942Z" fill="#0B685F"/>
<path d="M54.5514 52.2367L55.7051 54.6561L63.3412 50.6421L58.6716 49.4874L54.5514 52.2367Z" fill="#54C2B9"/>
</svg>
